<svg xmlns="http://www.w3.org/2000/svg" xmlns:xlink="http://www.w3.org/1999/xlink" width="40" zoomAndPan="magnify" viewBox="0 0 30 31.5" height="42" preserveAspectRatio="xMidYMid meet" version="1.0"><defs><clipPath id="429324313f"><path d="M 0.234375 15 L 18 15 L 18 31 L 0.234375 31 Z M 0.234375 15 " clip-rule="nonzero"/></clipPath><clipPath id="2f5408ca2a"><path d="M 17 5 L 29.765625 5 L 29.765625 26 L 17 26 Z M 17 5 " clip-rule="nonzero"/></clipPath><clipPath id="9cb6dd44f5"><path d="M 0.234375 0 L 18 0 L 18 15 L 0.234375 15 Z M 0.234375 0 " clip-rule="nonzero"/></clipPath></defs><g clip-path="url(#429324313f)"><path fill="#0dcaf0" d="M 0.234375 20.59375 L 10.515625 15.949219 L 16.433594 19.433594 L 17.628906 30.859375 L 10.335938 30.796875 L 11.414062 22.855469 L 10.15625 22.121094 L 4 27.007812 Z M 0.234375 20.59375 " fill-opacity="1" fill-rule="nonzero"/></g><g clip-path="url(#2f5408ca2a)"><path fill="#0dcaf0" d="M 17.09375 18.941406 L 26.179688 25.726562 L 29.765625 19.1875 L 22.472656 16.191406 L 22.472656 14.726562 L 29.765625 11.671875 L 26.179688 5.195312 L 17.09375 11.976562 Z M 17.09375 18.941406 " fill-opacity="1" fill-rule="nonzero"/></g><g clip-path="url(#9cb6dd44f5)"><path fill="#0dcaf0" d="M 16.433594 11.425781 L 17.628906 0 L 10.335938 0.121094 L 11.414062 8.066406 L 10.15625 8.800781 L 3.941406 3.910156 L 0.234375 10.265625 L 10.515625 14.910156 Z M 16.433594 11.425781 " fill-opacity="1" fill-rule="nonzero"/></g></svg>