<svg xmlns="http://www.w3.org/2000/svg" xmlns:xlink="http://www.w3.org/1999/xlink" width="300" zoomAndPan="magnify" viewBox="0 0 224.87999 83.04" height="100" preserveAspectRatio="xMidYMid meet" version="1.0"><defs><filter x="0%" y="0%" width="100%" height="100%" id="8a0861a571"><feColorMatrix values="0 0 0 0 1 0 0 0 0 1 0 0 0 0 1 0 0 0 1 0" color-interpolation-filters="sRGB"/></filter><g/><clipPath id="f3e6556b14"><path d="M 1.226562 0 L 223.535156 0 L 223.535156 74.144531 L 1.226562 74.144531 Z M 1.226562 0 " clip-rule="nonzero"/></clipPath><clipPath id="2b33dfd9f5"><path d="M 0.226562 0 L 222.535156 0 L 222.535156 74.144531 L 0.226562 74.144531 Z M 0.226562 0 " clip-rule="nonzero"/></clipPath><clipPath id="d69f903f31"><path d="M 0.226562 0 L 222.535156 0 L 222.535156 74.144531 L 0.226562 74.144531 Z M 0.226562 0 " clip-rule="nonzero"/></clipPath><linearGradient x1="109.953003" gradientTransform="matrix(0.740997, 0, 0, 0.739813, 29.653462, 22.940108)" y1="-31.007996" x2="109.953003" gradientUnits="userSpaceOnUse" y2="69.210421" id="1c43cf141b"><stop stop-opacity="1" stop-color="rgb(100%, 98.81897%, 96.078491%)" offset="0"/><stop stop-opacity="1" stop-color="rgb(100%, 98.81897%, 96.078491%)" offset="0.25"/><stop stop-opacity="1" stop-color="rgb(100%, 98.81897%, 96.078491%)" offset="0.3125"/><stop stop-opacity="1" stop-color="rgb(99.902344%, 98.722839%, 95.97168%)" offset="0.34375"/><stop stop-opacity="1" stop-color="rgb(99.635315%, 98.454285%, 95.677185%)" offset="0.351562"/><stop stop-opacity="1" stop-color="rgb(99.293518%, 98.112488%, 95.300293%)" offset="0.359375"/><stop stop-opacity="1" stop-color="rgb(98.950195%, 97.770691%, 94.923401%)" offset="0.367188"/><stop stop-opacity="1" stop-color="rgb(98.608398%, 97.428894%, 94.544983%)" offset="0.375"/><stop stop-opacity="1" stop-color="rgb(98.266602%, 97.087097%, 94.168091%)" offset="0.382813"/><stop stop-opacity="1" stop-color="rgb(97.924805%, 96.7453%, 93.791199%)" offset="0.390625"/><stop stop-opacity="1" stop-color="rgb(97.583008%, 96.401978%, 93.414307%)" offset="0.398438"/><stop stop-opacity="1" stop-color="rgb(97.241211%, 96.060181%, 93.037415%)" offset="0.40625"/><stop stop-opacity="1" stop-color="rgb(96.897888%, 95.718384%, 92.660522%)" offset="0.414062"/><stop stop-opacity="1" stop-color="rgb(96.556091%, 95.376587%, 92.282104%)" offset="0.421875"/><stop stop-opacity="1" stop-color="rgb(96.214294%, 95.03479%, 91.905212%)" offset="0.429688"/><stop stop-opacity="1" stop-color="rgb(95.872498%, 94.692993%, 91.52832%)" offset="0.4375"/><stop stop-opacity="1" stop-color="rgb(95.530701%, 94.351196%, 91.151428%)" offset="0.445312"/><stop stop-opacity="1" stop-color="rgb(95.188904%, 94.007874%, 90.774536%)" offset="0.453125"/><stop stop-opacity="1" stop-color="rgb(94.847107%, 93.666077%, 90.396118%)" offset="0.460938"/><stop stop-opacity="1" stop-color="rgb(94.503784%, 93.32428%, 90.019226%)" offset="0.46875"/><stop stop-opacity="1" stop-color="rgb(94.161987%, 92.982483%, 89.642334%)" offset="0.476563"/><stop stop-opacity="1" stop-color="rgb(93.82019%, 92.640686%, 89.265442%)" offset="0.484375"/><stop stop-opacity="1" stop-color="rgb(93.478394%, 92.298889%, 88.88855%)" offset="0.492188"/><stop stop-opacity="1" stop-color="rgb(93.136597%, 91.955566%, 88.511658%)" offset="0.5"/><stop stop-opacity="1" stop-color="rgb(92.7948%, 91.61377%, 88.13324%)" offset="0.507812"/><stop stop-opacity="1" stop-color="rgb(92.451477%, 91.271973%, 87.756348%)" offset="0.515625"/><stop stop-opacity="1" stop-color="rgb(92.10968%, 90.930176%, 87.379456%)" offset="0.523438"/><stop stop-opacity="1" stop-color="rgb(91.767883%, 90.588379%, 87.002563%)" offset="0.53125"/><stop stop-opacity="1" stop-color="rgb(91.426086%, 90.246582%, 86.625671%)" offset="0.539063"/><stop stop-opacity="1" stop-color="rgb(91.08429%, 89.903259%, 86.248779%)" offset="0.546875"/><stop stop-opacity="1" stop-color="rgb(90.742493%, 89.561462%, 85.870361%)" offset="0.554688"/><stop stop-opacity="1" stop-color="rgb(90.39917%, 89.219666%, 85.493469%)" offset="0.5625"/><stop stop-opacity="1" stop-color="rgb(90.057373%, 88.877869%, 85.116577%)" offset="0.570312"/><stop stop-opacity="1" stop-color="rgb(89.715576%, 88.536072%, 84.739685%)" offset="0.578125"/><stop stop-opacity="1" stop-color="rgb(89.373779%, 88.194275%, 84.362793%)" offset="0.585938"/><stop stop-opacity="1" stop-color="rgb(89.031982%, 87.852478%, 83.984375%)" offset="0.59375"/><stop stop-opacity="1" stop-color="rgb(88.690186%, 87.509155%, 83.607483%)" offset="0.601562"/><stop stop-opacity="1" stop-color="rgb(88.348389%, 87.167358%, 83.230591%)" offset="0.609375"/><stop stop-opacity="1" stop-color="rgb(88.005066%, 86.825562%, 82.853699%)" offset="0.617188"/><stop stop-opacity="1" stop-color="rgb(87.663269%, 86.483765%, 82.476807%)" offset="0.625"/><stop stop-opacity="1" stop-color="rgb(87.321472%, 86.141968%, 82.099915%)" offset="0.632812"/><stop stop-opacity="1" stop-color="rgb(86.979675%, 85.800171%, 81.721497%)" offset="0.640625"/><stop stop-opacity="1" stop-color="rgb(86.637878%, 85.456848%, 81.344604%)" offset="0.648438"/><stop stop-opacity="1" stop-color="rgb(86.296082%, 85.115051%, 80.967712%)" offset="0.65625"/><stop stop-opacity="1" stop-color="rgb(85.952759%, 84.773254%, 80.59082%)" offset="0.664062"/><stop stop-opacity="1" stop-color="rgb(85.610962%, 84.431458%, 80.213928%)" offset="0.671875"/><stop stop-opacity="1" stop-color="rgb(85.269165%, 84.089661%, 79.837036%)" offset="0.679688"/><stop stop-opacity="1" stop-color="rgb(84.927368%, 83.747864%, 79.458618%)" offset="0.6875"/><stop stop-opacity="1" stop-color="rgb(84.732056%, 83.552551%, 79.244995%)" offset="0.75"/><stop stop-opacity="1" stop-color="rgb(84.709167%, 83.529663%, 79.219055%)" offset="1"/></linearGradient><clipPath id="06cdc0bc0b"><rect x="0" width="223" y="0" height="75"/></clipPath><clipPath id="d920c9c9bb"><path d="M 0.226562 0 L 222.535156 0 L 222.535156 74.144531 L 0.226562 74.144531 Z M 0.226562 0 " clip-rule="nonzero"/></clipPath><clipPath id="9cb6a9361a"><rect x="0" width="223" y="0" height="75"/></clipPath><clipPath id="c1f5d0354f"><rect x="0" width="223" y="0" height="75"/></clipPath><mask id="e4327dfc8f"><g filter="url(#8a0861a571)"><g transform="matrix(1, 0, 0, 1, 0.000000000000000222, 0.000000000000003817)"><g clip-path="url(#c1f5d0354f)"><g clip-path="url(#d920c9c9bb)"><g transform="matrix(1, 0, 0, 1, 0.000000000000000222, 0.000000000000003817)"><g clip-path="url(#9cb6a9361a)"><g fill="#000000" fill-opacity="1"><g transform="translate(29.924558, 45.520549)"><g><path d="M 7.375 0.21875 C 6.15625 0.21875 5.039062 0.0195312 4.03125 -0.375 C 3.019531 -0.78125 2.0625 -1.394531 1.15625 -2.21875 L 2.21875 -3.484375 C 3.019531 -2.753906 3.820312 -2.210938 4.625 -1.859375 C 5.4375 -1.503906 6.375 -1.328125 7.4375 -1.328125 C 8.46875 -1.328125 9.289062 -1.566406 9.90625 -2.046875 C 10.519531 -2.535156 10.828125 -3.160156 10.828125 -3.921875 L 10.828125 -3.953125 C 10.828125 -4.304688 10.769531 -4.625 10.65625 -4.90625 C 10.539062 -5.1875 10.335938 -5.441406 10.046875 -5.671875 C 9.753906 -5.910156 9.347656 -6.125 8.828125 -6.3125 C 8.316406 -6.5 7.664062 -6.675781 6.875 -6.84375 C 6 -7.039062 5.238281 -7.257812 4.59375 -7.5 C 3.945312 -7.75 3.414062 -8.046875 3 -8.390625 C 2.582031 -8.742188 2.269531 -9.148438 2.0625 -9.609375 C 1.863281 -10.078125 1.765625 -10.625 1.765625 -11.25 L 1.765625 -11.28125 C 1.765625 -11.882812 1.882812 -12.4375 2.125 -12.9375 C 2.375 -13.445312 2.722656 -13.882812 3.171875 -14.25 C 3.617188 -14.625 4.144531 -14.914062 4.75 -15.125 C 5.363281 -15.332031 6.035156 -15.4375 6.765625 -15.4375 C 7.878906 -15.4375 8.851562 -15.28125 9.6875 -14.96875 C 10.519531 -14.65625 11.328125 -14.191406 12.109375 -13.578125 L 11.109375 -12.25 C 10.398438 -12.820312 9.6875 -13.238281 8.96875 -13.5 C 8.25 -13.757812 7.5 -13.890625 6.71875 -13.890625 C 5.71875 -13.890625 4.925781 -13.65625 4.34375 -13.1875 C 3.769531 -12.71875 3.484375 -12.132812 3.484375 -11.4375 L 3.484375 -11.390625 C 3.484375 -11.035156 3.539062 -10.710938 3.65625 -10.421875 C 3.769531 -10.140625 3.976562 -9.878906 4.28125 -9.640625 C 4.582031 -9.398438 5 -9.179688 5.53125 -8.984375 C 6.070312 -8.796875 6.765625 -8.613281 7.609375 -8.4375 C 9.304688 -8.0625 10.554688 -7.539062 11.359375 -6.875 C 12.171875 -6.207031 12.578125 -5.289062 12.578125 -4.125 L 12.578125 -4.09375 C 12.578125 -3.4375 12.441406 -2.84375 12.171875 -2.3125 C 11.910156 -1.78125 11.550781 -1.328125 11.09375 -0.953125 C 10.644531 -0.578125 10.097656 -0.285156 9.453125 -0.078125 C 8.816406 0.117188 8.125 0.21875 7.375 0.21875 Z M 7.375 0.21875 "/></g></g></g><g fill="#000000" fill-opacity="1"><g transform="translate(43.841164, 45.520549)"><g><path d="M 1.90625 -15.546875 L 3.828125 -15.546875 L 3.828125 -13.703125 L 1.90625 -13.703125 Z M 2.015625 -11.25 L 3.703125 -11.25 L 3.703125 0 L 2.015625 0 Z M 2.015625 -11.25 "/></g></g></g><g fill="#000000" fill-opacity="1"><g transform="translate(49.560015, 45.520549)"><g><path d="M 1.875 -11.25 L 3.546875 -11.25 L 3.546875 -8.3125 C 3.742188 -8.769531 3.992188 -9.191406 4.296875 -9.578125 C 4.609375 -9.972656 4.957031 -10.3125 5.34375 -10.59375 C 5.738281 -10.882812 6.164062 -11.101562 6.625 -11.25 C 7.09375 -11.394531 7.597656 -11.457031 8.140625 -11.4375 L 8.140625 -9.640625 L 8 -9.640625 C 7.394531 -9.640625 6.816406 -9.53125 6.265625 -9.3125 C 5.722656 -9.09375 5.25 -8.765625 4.84375 -8.328125 C 4.4375 -7.890625 4.117188 -7.347656 3.890625 -6.703125 C 3.660156 -6.054688 3.546875 -5.316406 3.546875 -4.484375 L 3.546875 0 L 1.875 0 Z M 1.875 -11.25 "/></g></g></g><g fill="#000000" fill-opacity="1"><g transform="translate(58.376878, 45.520549)"><g/></g></g><g fill="#000000" fill-opacity="1"><g transform="translate(64.900286, 45.520549)"><g/></g></g><g fill="#000000" fill-opacity="1"><g transform="translate(71.423695, 45.520549)"><g/></g></g><g fill="#000000" fill-opacity="1"><g transform="translate(77.947103, 45.520549)"><g/></g></g><g fill="#000000" fill-opacity="1"><g transform="translate(84.470511, 45.520549)"><g/></g></g><g fill="#000000" fill-opacity="1"><g transform="translate(90.993919, 45.520549)"><g/></g></g><g fill="#000000" fill-opacity="1"><g transform="translate(97.517327, 45.520549)"><g/></g></g><g fill="#000000" fill-opacity="1"><g transform="translate(104.044243, 45.520549)"><g><path d="M 9.21875 0.265625 C 8.0625 0.265625 7.003906 0.0546875 6.046875 -0.359375 C 5.097656 -0.785156 4.285156 -1.359375 3.609375 -2.078125 C 2.929688 -2.796875 2.40625 -3.628906 2.03125 -4.578125 C 1.664062 -5.523438 1.484375 -6.519531 1.484375 -7.5625 L 1.484375 -7.609375 C 1.484375 -8.648438 1.671875 -9.648438 2.046875 -10.609375 C 2.421875 -11.566406 2.945312 -12.40625 3.625 -13.125 C 4.3125 -13.84375 5.132812 -14.414062 6.09375 -14.84375 C 7.050781 -15.269531 8.109375 -15.484375 9.265625 -15.484375 C 10.421875 -15.484375 11.472656 -15.269531 12.421875 -14.84375 C 13.378906 -14.425781 14.195312 -13.859375 14.875 -13.140625 C 15.5625 -12.429688 16.085938 -11.597656 16.453125 -10.640625 C 16.828125 -9.691406 17.015625 -8.695312 17.015625 -7.65625 L 17.015625 -7.609375 C 17.015625 -6.566406 16.820312 -5.566406 16.4375 -4.609375 C 16.0625 -3.648438 15.53125 -2.8125 14.84375 -2.09375 C 14.164062 -1.375 13.347656 -0.800781 12.390625 -0.375 C 11.441406 0.0507812 10.382812 0.265625 9.21875 0.265625 Z M 9.265625 -1.328125 C 10.140625 -1.328125 10.941406 -1.488281 11.671875 -1.8125 C 12.398438 -2.144531 13.023438 -2.59375 13.546875 -3.15625 C 14.066406 -3.71875 14.472656 -4.375 14.765625 -5.125 C 15.066406 -5.882812 15.21875 -6.695312 15.21875 -7.5625 L 15.21875 -7.609375 C 15.21875 -8.484375 15.066406 -9.300781 14.765625 -10.0625 C 14.472656 -10.820312 14.054688 -11.484375 13.515625 -12.046875 C 12.984375 -12.609375 12.351562 -13.054688 11.625 -13.390625 C 10.894531 -13.722656 10.09375 -13.890625 9.21875 -13.890625 C 8.351562 -13.890625 7.550781 -13.726562 6.8125 -13.40625 C 6.082031 -13.082031 5.457031 -12.632812 4.9375 -12.0625 C 4.414062 -11.5 4.003906 -10.84375 3.703125 -10.09375 C 3.410156 -9.34375 3.265625 -8.53125 3.265625 -7.65625 L 3.265625 -7.609375 C 3.265625 -6.742188 3.410156 -5.929688 3.703125 -5.171875 C 4.003906 -4.410156 4.421875 -3.742188 4.953125 -3.171875 C 5.492188 -2.609375 6.128906 -2.160156 6.859375 -1.828125 C 7.585938 -1.492188 8.390625 -1.328125 9.265625 -1.328125 Z M 9.265625 -1.328125 "/></g></g></g><g fill="#000000" fill-opacity="1"><g transform="translate(122.527236, 45.520549)"><g><path d="M 1.875 -15.875 L 3.546875 -15.875 L 3.546875 -4.921875 L 9.609375 -11.25 L 11.703125 -11.25 L 6.984375 -6.421875 L 11.859375 0 L 9.859375 0 L 5.828125 -5.234375 L 3.546875 -2.9375 L 3.546875 0 L 1.875 0 Z M 1.875 -15.875 "/></g></g></g><g fill="#000000" fill-opacity="1"><g transform="translate(134.356322, 45.520549)"><g><path d="M 6.78125 0.265625 C 6.019531 0.265625 5.296875 0.125 4.609375 -0.15625 C 3.929688 -0.445312 3.335938 -0.847656 2.828125 -1.359375 C 2.316406 -1.867188 1.910156 -2.484375 1.609375 -3.203125 C 1.316406 -3.921875 1.171875 -4.71875 1.171875 -5.59375 L 1.171875 -5.640625 C 1.171875 -6.441406 1.304688 -7.195312 1.578125 -7.90625 C 1.847656 -8.625 2.222656 -9.25 2.703125 -9.78125 C 3.179688 -10.3125 3.75 -10.726562 4.40625 -11.03125 C 5.0625 -11.332031 5.78125 -11.484375 6.5625 -11.484375 C 7.394531 -11.484375 8.132812 -11.328125 8.78125 -11.015625 C 9.4375 -10.703125 9.988281 -10.273438 10.4375 -9.734375 C 10.882812 -9.203125 11.222656 -8.578125 11.453125 -7.859375 C 11.691406 -7.140625 11.8125 -6.367188 11.8125 -5.546875 C 11.8125 -5.429688 11.8125 -5.335938 11.8125 -5.265625 C 11.8125 -5.191406 11.800781 -5.101562 11.78125 -5 L 2.875 -5 C 2.925781 -4.394531 3.066406 -3.851562 3.296875 -3.375 C 3.535156 -2.90625 3.832031 -2.507812 4.1875 -2.1875 C 4.539062 -1.863281 4.941406 -1.617188 5.390625 -1.453125 C 5.835938 -1.285156 6.316406 -1.203125 6.828125 -1.203125 C 7.609375 -1.203125 8.273438 -1.34375 8.828125 -1.625 C 9.390625 -1.914062 9.90625 -2.300781 10.375 -2.78125 L 11.421875 -1.84375 C 10.859375 -1.207031 10.210938 -0.695312 9.484375 -0.3125 C 8.753906 0.0703125 7.851562 0.265625 6.78125 0.265625 Z M 10.109375 -6.25 C 10.066406 -6.75 9.960938 -7.226562 9.796875 -7.6875 C 9.628906 -8.15625 9.394531 -8.5625 9.09375 -8.90625 C 8.800781 -9.257812 8.441406 -9.539062 8.015625 -9.75 C 7.585938 -9.957031 7.09375 -10.0625 6.53125 -10.0625 C 6.03125 -10.0625 5.570312 -9.960938 5.15625 -9.765625 C 4.738281 -9.578125 4.367188 -9.3125 4.046875 -8.96875 C 3.722656 -8.625 3.457031 -8.21875 3.25 -7.75 C 3.050781 -7.289062 2.925781 -6.789062 2.875 -6.25 Z M 10.109375 -6.25 "/></g></g></g><g fill="#000000" fill-opacity="1"><g transform="translate(147.229186, 45.520549)"><g><path d="M 7 0.265625 C 6.15625 0.265625 5.378906 0.109375 4.671875 -0.203125 C 3.960938 -0.515625 3.347656 -0.9375 2.828125 -1.46875 C 2.304688 -2 1.898438 -2.613281 1.609375 -3.3125 C 1.316406 -4.019531 1.171875 -4.769531 1.171875 -5.5625 L 1.171875 -5.609375 C 1.171875 -6.410156 1.316406 -7.164062 1.609375 -7.875 C 1.898438 -8.582031 2.304688 -9.203125 2.828125 -9.734375 C 3.347656 -10.273438 3.96875 -10.703125 4.6875 -11.015625 C 5.40625 -11.328125 6.191406 -11.484375 7.046875 -11.484375 C 7.890625 -11.484375 8.671875 -11.328125 9.390625 -11.015625 C 10.109375 -10.703125 10.726562 -10.28125 11.25 -9.75 C 11.769531 -9.226562 12.171875 -8.613281 12.453125 -7.90625 C 12.742188 -7.195312 12.890625 -6.445312 12.890625 -5.65625 L 12.890625 -5.609375 C 12.890625 -4.816406 12.738281 -4.0625 12.4375 -3.34375 C 12.144531 -2.632812 11.738281 -2.007812 11.21875 -1.46875 C 10.695312 -0.9375 10.070312 -0.515625 9.34375 -0.203125 C 8.625 0.109375 7.84375 0.265625 7 0.265625 Z M 7.046875 -1.234375 C 7.648438 -1.234375 8.207031 -1.347656 8.71875 -1.578125 C 9.226562 -1.816406 9.664062 -2.128906 10.03125 -2.515625 C 10.394531 -2.910156 10.675781 -3.367188 10.875 -3.890625 C 11.070312 -4.410156 11.171875 -4.96875 11.171875 -5.5625 L 11.171875 -5.609375 C 11.171875 -6.222656 11.066406 -6.789062 10.859375 -7.3125 C 10.648438 -7.84375 10.359375 -8.304688 9.984375 -8.703125 C 9.609375 -9.109375 9.164062 -9.425781 8.65625 -9.65625 C 8.144531 -9.882812 7.59375 -10 7 -10 C 6.394531 -10 5.835938 -9.882812 5.328125 -9.65625 C 4.816406 -9.425781 4.382812 -9.113281 4.03125 -8.71875 C 3.675781 -8.332031 3.394531 -7.875 3.1875 -7.34375 C 2.988281 -6.8125 2.890625 -6.25 2.890625 -5.65625 L 2.890625 -5.609375 C 2.890625 -5.003906 2.992188 -4.4375 3.203125 -3.90625 C 3.421875 -3.375 3.710938 -2.910156 4.078125 -2.515625 C 4.441406 -2.128906 4.878906 -1.816406 5.390625 -1.578125 C 5.898438 -1.347656 6.453125 -1.234375 7.046875 -1.234375 Z M 7.046875 -1.234375 "/></g></g></g><g fill="#000000" fill-opacity="1"><g transform="translate(160.732607, 45.520549)"><g><path d="M 0.90625 -11.25 L 2.703125 -11.25 L 5.65625 -2.21875 L 8.671875 -11.28125 L 10.0625 -11.28125 L 13.109375 -2.21875 L 16.078125 -11.25 L 17.8125 -11.25 L 13.859375 0.09375 L 12.390625 0.09375 L 9.375 -8.78125 L 6.328125 0.09375 L 4.84375 0.09375 Z M 0.90625 -11.25 "/></g></g></g><g fill="#000000" fill-opacity="1"><g transform="translate(178.911137, 45.520549)"><g><path d="M 7 0.265625 C 6.15625 0.265625 5.378906 0.109375 4.671875 -0.203125 C 3.960938 -0.515625 3.347656 -0.9375 2.828125 -1.46875 C 2.304688 -2 1.898438 -2.613281 1.609375 -3.3125 C 1.316406 -4.019531 1.171875 -4.769531 1.171875 -5.5625 L 1.171875 -5.609375 C 1.171875 -6.410156 1.316406 -7.164062 1.609375 -7.875 C 1.898438 -8.582031 2.304688 -9.203125 2.828125 -9.734375 C 3.347656 -10.273438 3.96875 -10.703125 4.6875 -11.015625 C 5.40625 -11.328125 6.191406 -11.484375 7.046875 -11.484375 C 7.890625 -11.484375 8.671875 -11.328125 9.390625 -11.015625 C 10.109375 -10.703125 10.726562 -10.28125 11.25 -9.75 C 11.769531 -9.226562 12.171875 -8.613281 12.453125 -7.90625 C 12.742188 -7.195312 12.890625 -6.445312 12.890625 -5.65625 L 12.890625 -5.609375 C 12.890625 -4.816406 12.738281 -4.0625 12.4375 -3.34375 C 12.144531 -2.632812 11.738281 -2.007812 11.21875 -1.46875 C 10.695312 -0.9375 10.070312 -0.515625 9.34375 -0.203125 C 8.625 0.109375 7.84375 0.265625 7 0.265625 Z M 7.046875 -1.234375 C 7.648438 -1.234375 8.207031 -1.347656 8.71875 -1.578125 C 9.226562 -1.816406 9.664062 -2.128906 10.03125 -2.515625 C 10.394531 -2.910156 10.675781 -3.367188 10.875 -3.890625 C 11.070312 -4.410156 11.171875 -4.96875 11.171875 -5.5625 L 11.171875 -5.609375 C 11.171875 -6.222656 11.066406 -6.789062 10.859375 -7.3125 C 10.648438 -7.84375 10.359375 -8.304688 9.984375 -8.703125 C 9.609375 -9.109375 9.164062 -9.425781 8.65625 -9.65625 C 8.144531 -9.882812 7.59375 -10 7 -10 C 6.394531 -10 5.835938 -9.882812 5.328125 -9.65625 C 4.816406 -9.425781 4.382812 -9.113281 4.03125 -8.71875 C 3.675781 -8.332031 3.394531 -7.875 3.1875 -7.34375 C 2.988281 -6.8125 2.890625 -6.25 2.890625 -5.65625 L 2.890625 -5.609375 C 2.890625 -5.003906 2.992188 -4.4375 3.203125 -3.90625 C 3.421875 -3.375 3.710938 -2.910156 4.078125 -2.515625 C 4.441406 -2.128906 4.878906 -1.816406 5.390625 -1.578125 C 5.898438 -1.347656 6.453125 -1.234375 7.046875 -1.234375 Z M 7.046875 -1.234375 "/></g></g></g></g></g></g></g></g></g></mask><clipPath id="be938441ef"><path d="M 0.226562 0 L 222.535156 0 L 222.535156 74.144531 L 0.226562 74.144531 Z M 0.226562 0 " clip-rule="nonzero"/></clipPath><clipPath id="6e22e515e4"><rect x="0" width="223" y="0" height="75"/></clipPath><clipPath id="487e9965a8"><rect x="0" width="223" y="0" height="75"/></clipPath><clipPath id="646dd294cb"><path d="M 14.304688 0 L 152.953125 0 L 152.953125 74.144531 L 14.304688 74.144531 Z M 14.304688 0 " clip-rule="nonzero"/></clipPath><clipPath id="72bcf39932"><path d="M 0.304688 0 L 138.953125 0 L 138.953125 74.144531 L 0.304688 74.144531 Z M 0.304688 0 " clip-rule="nonzero"/></clipPath><clipPath id="dac7923a6d"><path d="M 0.304688 0 L 138.953125 0 L 138.953125 74.144531 L 0.304688 74.144531 Z M 0.304688 0 " clip-rule="nonzero"/></clipPath><linearGradient x1="18.851999" gradientTransform="matrix(0.741356, 0, 0, 0.740179, 55.658854, 22.345356)" y1="-30.189143" x2="18.851999" gradientUnits="userSpaceOnUse" y2="69.979735" id="200dccd75a"><stop stop-opacity="1" stop-color="rgb(90.589905%, 66.668701%, 31.759644%)" offset="0"/><stop stop-opacity="1" stop-color="rgb(90.589905%, 66.668701%, 31.759644%)" offset="0.25"/><stop stop-opacity="1" stop-color="rgb(90.589905%, 66.668701%, 31.759644%)" offset="0.3125"/><stop stop-opacity="1" stop-color="rgb(90.589905%, 66.668701%, 31.759644%)" offset="0.320312"/><stop stop-opacity="1" stop-color="rgb(90.861511%, 67.324829%, 32.574463%)" offset="0.324219"/><stop stop-opacity="1" stop-color="rgb(91.133118%, 67.982483%, 33.390808%)" offset="0.328125"/><stop stop-opacity="1" stop-color="rgb(91.445923%, 68.739319%, 34.33075%)" offset="0.332031"/><stop stop-opacity="1" stop-color="rgb(91.760254%, 69.497681%, 35.270691%)" offset="0.335937"/><stop stop-opacity="1" stop-color="rgb(92.073059%, 70.254517%, 36.210632%)" offset="0.339844"/><stop stop-opacity="1" stop-color="rgb(92.385864%, 71.011353%, 37.1521%)" offset="0.34375"/><stop stop-opacity="1" stop-color="rgb(92.698669%, 71.768188%, 38.092041%)" offset="0.347656"/><stop stop-opacity="1" stop-color="rgb(93.013%, 72.52655%, 39.033508%)" offset="0.351562"/><stop stop-opacity="1" stop-color="rgb(93.325806%, 73.283386%, 39.97345%)" offset="0.355469"/><stop stop-opacity="1" stop-color="rgb(93.640137%, 74.040222%, 40.913391%)" offset="0.359375"/><stop stop-opacity="1" stop-color="rgb(93.952942%, 74.797058%, 41.853333%)" offset="0.363281"/><stop stop-opacity="1" stop-color="rgb(94.265747%, 75.55542%, 42.7948%)" offset="0.367187"/><stop stop-opacity="1" stop-color="rgb(94.578552%, 76.312256%, 43.734741%)" offset="0.371094"/><stop stop-opacity="1" stop-color="rgb(94.892883%, 77.070618%, 44.676208%)" offset="0.375"/><stop stop-opacity="1" stop-color="rgb(95.205688%, 77.827454%, 45.61615%)" offset="0.378906"/><stop stop-opacity="1" stop-color="rgb(95.52002%, 78.58429%, 46.556091%)" offset="0.382812"/><stop stop-opacity="1" stop-color="rgb(95.832825%, 79.341125%, 47.496033%)" offset="0.386719"/><stop stop-opacity="1" stop-color="rgb(96.147156%, 80.099487%, 48.4375%)" offset="0.390625"/><stop stop-opacity="1" stop-color="rgb(96.459961%, 80.856323%, 49.377441%)" offset="0.394531"/><stop stop-opacity="1" stop-color="rgb(96.772766%, 81.613159%, 50.317383%)" offset="0.398438"/><stop stop-opacity="1" stop-color="rgb(97.085571%, 82.369995%, 51.257324%)" offset="0.402344"/><stop stop-opacity="1" stop-color="rgb(97.399902%, 83.128357%, 52.198792%)" offset="0.40625"/><stop stop-opacity="1" stop-color="rgb(97.712708%, 83.885193%, 53.138733%)" offset="0.410156"/><stop stop-opacity="1" stop-color="rgb(98.027039%, 84.642029%, 54.0802%)" offset="0.414062"/><stop stop-opacity="1" stop-color="rgb(98.339844%, 85.398865%, 55.020142%)" offset="0.417969"/><stop stop-opacity="1" stop-color="rgb(98.654175%, 86.157227%, 55.960083%)" offset="0.421875"/><stop stop-opacity="1" stop-color="rgb(98.96698%, 86.914062%, 56.900024%)" offset="0.425781"/><stop stop-opacity="1" stop-color="rgb(99.279785%, 87.670898%, 57.841492%)" offset="0.429687"/><stop stop-opacity="1" stop-color="rgb(99.59259%, 88.427734%, 58.781433%)" offset="0.433594"/><stop stop-opacity="1" stop-color="rgb(99.906921%, 89.186096%, 59.7229%)" offset="0.4375"/><stop stop-opacity="1" stop-color="rgb(98.683167%, 87.760925%, 58.457947%)" offset="0.441406"/><stop stop-opacity="1" stop-color="rgb(97.459412%, 86.335754%, 57.192993%)" offset="0.445312"/><stop stop-opacity="1" stop-color="rgb(95.970154%, 84.533691%, 55.54657%)" offset="0.449219"/><stop stop-opacity="1" stop-color="rgb(94.482422%, 82.731628%, 53.901672%)" offset="0.453125"/><stop stop-opacity="1" stop-color="rgb(92.993164%, 80.92804%, 52.256775%)" offset="0.457031"/><stop stop-opacity="1" stop-color="rgb(91.503906%, 79.125977%, 50.611877%)" offset="0.460937"/><stop stop-opacity="1" stop-color="rgb(90.014648%, 77.323914%, 48.965454%)" offset="0.464844"/><stop stop-opacity="1" stop-color="rgb(88.526917%, 75.521851%, 47.320557%)" offset="0.46875"/><stop stop-opacity="1" stop-color="rgb(87.037659%, 73.719788%, 45.674133%)" offset="0.472656"/><stop stop-opacity="1" stop-color="rgb(85.548401%, 71.917725%, 44.029236%)" offset="0.476562"/><stop stop-opacity="1" stop-color="rgb(84.059143%, 70.115662%, 42.384338%)" offset="0.480469"/><stop stop-opacity="1" stop-color="rgb(82.571411%, 68.313599%, 40.739441%)" offset="0.484375"/><stop stop-opacity="1" stop-color="rgb(81.082153%, 66.511536%, 39.093018%)" offset="0.488281"/><stop stop-opacity="1" stop-color="rgb(79.592896%, 64.709473%, 37.44812%)" offset="0.492187"/><stop stop-opacity="1" stop-color="rgb(78.103638%, 62.905884%, 35.803223%)" offset="0.496094"/><stop stop-opacity="1" stop-color="rgb(76.615906%, 61.103821%, 34.158325%)" offset="0.5"/><stop stop-opacity="1" stop-color="rgb(75.126648%, 59.301758%, 32.511902%)" offset="0.503906"/><stop stop-opacity="1" stop-color="rgb(73.63739%, 57.499695%, 30.867004%)" offset="0.507812"/><stop stop-opacity="1" stop-color="rgb(72.148132%, 55.697632%, 29.220581%)" offset="0.511719"/><stop stop-opacity="1" stop-color="rgb(70.6604%, 53.895569%, 27.575684%)" offset="0.515625"/><stop stop-opacity="1" stop-color="rgb(69.171143%, 52.093506%, 25.930786%)" offset="0.519531"/><stop stop-opacity="1" stop-color="rgb(67.681885%, 50.291443%, 24.285889%)" offset="0.523438"/><stop stop-opacity="1" stop-color="rgb(66.192627%, 48.487854%, 22.639465%)" offset="0.527344"/><stop stop-opacity="1" stop-color="rgb(64.704895%, 46.685791%, 20.994568%)" offset="0.53125"/><stop stop-opacity="1" stop-color="rgb(63.215637%, 44.883728%, 19.348145%)" offset="0.535156"/><stop stop-opacity="1" stop-color="rgb(61.726379%, 43.081665%, 17.703247%)" offset="0.539062"/><stop stop-opacity="1" stop-color="rgb(60.237122%, 41.279602%, 16.05835%)" offset="0.542969"/><stop stop-opacity="1" stop-color="rgb(58.74939%, 39.477539%, 14.413452%)" offset="0.546875"/><stop stop-opacity="1" stop-color="rgb(57.260132%, 37.675476%, 12.767029%)" offset="0.550781"/><stop stop-opacity="1" stop-color="rgb(55.770874%, 35.873413%, 11.122131%)" offset="0.554688"/><stop stop-opacity="1" stop-color="rgb(56.515503%, 36.456299%, 11.445618%)" offset="0.558594"/><stop stop-opacity="1" stop-color="rgb(57.260132%, 37.04071%, 11.77063%)" offset="0.5625"/><stop stop-opacity="1" stop-color="rgb(58.435059%, 38.085938%, 12.475586%)" offset="0.566406"/><stop stop-opacity="1" stop-color="rgb(59.609985%, 39.131165%, 13.180542%)" offset="0.570312"/><stop stop-opacity="1" stop-color="rgb(60.784912%, 40.174866%, 13.885498%)" offset="0.574219"/><stop stop-opacity="1" stop-color="rgb(61.961365%, 41.220093%, 14.590454%)" offset="0.578125"/><stop stop-opacity="1" stop-color="rgb(63.136292%, 42.26532%, 15.29541%)" offset="0.582031"/><stop stop-opacity="1" stop-color="rgb(64.312744%, 43.310547%, 16.000366%)" offset="0.585937"/><stop stop-opacity="1" stop-color="rgb(65.487671%, 44.355774%, 16.705322%)" offset="0.589844"/><stop stop-opacity="1" stop-color="rgb(66.664124%, 45.401001%, 17.410278%)" offset="0.59375"/><stop stop-opacity="1" stop-color="rgb(67.83905%, 46.444702%, 18.115234%)" offset="0.597656"/><stop stop-opacity="1" stop-color="rgb(69.015503%, 47.489929%, 18.82019%)" offset="0.601562"/><stop stop-opacity="1" stop-color="rgb(70.19043%, 48.535156%, 19.525146%)" offset="0.605469"/><stop stop-opacity="1" stop-color="rgb(71.365356%, 49.580383%, 20.230103%)" offset="0.609375"/><stop stop-opacity="1" stop-color="rgb(72.540283%, 50.62561%, 20.935059%)" offset="0.613281"/><stop stop-opacity="1" stop-color="rgb(73.716736%, 51.670837%, 21.640015%)" offset="0.617188"/><stop stop-opacity="1" stop-color="rgb(74.891663%, 52.714539%, 22.344971%)" offset="0.621094"/><stop stop-opacity="1" stop-color="rgb(76.068115%, 53.759766%, 23.049927%)" offset="0.625"/><stop stop-opacity="1" stop-color="rgb(77.243042%, 54.804993%, 23.754883%)" offset="0.628906"/><stop stop-opacity="1" stop-color="rgb(78.419495%, 55.85022%, 24.459839%)" offset="0.632812"/><stop stop-opacity="1" stop-color="rgb(79.594421%, 56.895447%, 25.164795%)" offset="0.636719"/><stop stop-opacity="1" stop-color="rgb(80.769348%, 57.940674%, 25.869751%)" offset="0.640625"/><stop stop-opacity="1" stop-color="rgb(81.944275%, 58.984375%, 26.574707%)" offset="0.644531"/><stop stop-opacity="1" stop-color="rgb(83.120728%, 60.029602%, 27.279663%)" offset="0.648437"/><stop stop-opacity="1" stop-color="rgb(84.295654%, 61.074829%, 27.984619%)" offset="0.652344"/><stop stop-opacity="1" stop-color="rgb(85.472107%, 62.120056%, 28.691101%)" offset="0.65625"/><stop stop-opacity="1" stop-color="rgb(86.647034%, 63.165283%, 29.396057%)" offset="0.660156"/><stop stop-opacity="1" stop-color="rgb(87.823486%, 64.21051%, 30.101013%)" offset="0.664062"/><stop stop-opacity="1" stop-color="rgb(88.998413%, 65.255737%, 30.805969%)" offset="0.667969"/><stop stop-opacity="1" stop-color="rgb(90.174866%, 66.300964%, 31.510925%)" offset="0.671875"/><stop stop-opacity="1" stop-color="rgb(89.74762%, 65.861511%, 31.291199%)" offset="0.675781"/><stop stop-opacity="1" stop-color="rgb(89.320374%, 65.422058%, 31.071472%)" offset="0.679687"/><stop stop-opacity="1" stop-color="rgb(88.549805%, 64.663696%, 30.653381%)" offset="0.683594"/><stop stop-opacity="1" stop-color="rgb(87.779236%, 63.90686%, 30.236816%)" offset="0.6875"/><stop stop-opacity="1" stop-color="rgb(87.008667%, 63.148499%, 29.818726%)" offset="0.691406"/><stop stop-opacity="1" stop-color="rgb(86.238098%, 62.391663%, 29.400635%)" offset="0.695312"/><stop stop-opacity="1" stop-color="rgb(85.467529%, 61.633301%, 28.982544%)" offset="0.699219"/><stop stop-opacity="1" stop-color="rgb(84.69696%, 60.876465%, 28.565979%)" offset="0.703125"/><stop stop-opacity="1" stop-color="rgb(83.926392%, 60.118103%, 28.147888%)" offset="0.707031"/><stop stop-opacity="1" stop-color="rgb(83.155823%, 59.361267%, 27.731323%)" offset="0.710938"/><stop stop-opacity="1" stop-color="rgb(82.385254%, 58.602905%, 27.313232%)" offset="0.714844"/><stop stop-opacity="1" stop-color="rgb(81.614685%, 57.846069%, 26.895142%)" offset="0.71875"/><stop stop-opacity="1" stop-color="rgb(80.844116%, 57.087708%, 26.477051%)" offset="0.722656"/><stop stop-opacity="1" stop-color="rgb(80.073547%, 56.330872%, 26.060486%)" offset="0.726562"/><stop stop-opacity="1" stop-color="rgb(79.302979%, 55.57251%, 25.642395%)" offset="0.730469"/><stop stop-opacity="1" stop-color="rgb(78.53241%, 54.815674%, 25.22583%)" offset="0.734375"/><stop stop-opacity="1" stop-color="rgb(77.761841%, 54.057312%, 24.807739%)" offset="0.738281"/><stop stop-opacity="1" stop-color="rgb(76.991272%, 53.300476%, 24.389648%)" offset="0.742187"/><stop stop-opacity="1" stop-color="rgb(76.220703%, 52.542114%, 23.971558%)" offset="0.746094"/><stop stop-opacity="1" stop-color="rgb(75.450134%, 51.785278%, 23.554993%)" offset="0.75"/><stop stop-opacity="1" stop-color="rgb(74.679565%, 51.026917%, 23.136902%)" offset="0.753906"/><stop stop-opacity="1" stop-color="rgb(73.908997%, 50.270081%, 22.720337%)" offset="0.757812"/><stop stop-opacity="1" stop-color="rgb(73.138428%, 49.511719%, 22.302246%)" offset="0.761719"/><stop stop-opacity="1" stop-color="rgb(72.367859%, 48.754883%, 21.884155%)" offset="0.765625"/><stop stop-opacity="1" stop-color="rgb(71.59729%, 47.996521%, 21.466064%)" offset="0.769531"/><stop stop-opacity="1" stop-color="rgb(70.826721%, 47.239685%, 21.0495%)" offset="0.773438"/><stop stop-opacity="1" stop-color="rgb(70.056152%, 46.481323%, 20.631409%)" offset="0.777344"/><stop stop-opacity="1" stop-color="rgb(69.285583%, 45.724487%, 20.214844%)" offset="0.78125"/><stop stop-opacity="1" stop-color="rgb(68.515015%, 44.966125%, 19.796753%)" offset="0.785156"/><stop stop-opacity="1" stop-color="rgb(67.744446%, 44.20929%, 19.378662%)" offset="0.789062"/><stop stop-opacity="1" stop-color="rgb(67.596436%, 44.064331%, 19.299316%)" offset="0.796875"/><stop stop-opacity="1" stop-color="rgb(67.449951%, 43.919373%, 19.219971%)" offset="0.8125"/><stop stop-opacity="1" stop-color="rgb(67.449951%, 43.919373%, 19.219971%)" offset="0.875"/><stop stop-opacity="1" stop-color="rgb(67.449951%, 43.919373%, 19.219971%)" offset="1"/></linearGradient><clipPath id="cb64351a04"><rect x="0" width="139" y="0" height="75"/></clipPath><clipPath id="39650a066e"><path d="M 0.304688 0 L 138.953125 0 L 138.953125 74.144531 L 0.304688 74.144531 Z M 0.304688 0 " clip-rule="nonzero"/></clipPath><clipPath id="bb752dbf0c"><rect x="0" width="139" y="0" height="75"/></clipPath><clipPath id="9792bc9338"><rect x="0" width="139" y="0" height="75"/></clipPath><mask id="6c62625807"><g filter="url(#8a0861a571)"><g transform="matrix(1, 0, 0, 1, 0, 0.000000000000003817)"><g clip-path="url(#9792bc9338)"><g clip-path="url(#39650a066e)"><g transform="matrix(1, 0, 0, 1, 0, 0.000000000000003817)"><g clip-path="url(#bb752dbf0c)"><g fill="#000000" fill-opacity="1"><g transform="translate(55.912669, 47.151706)"><g><path d="M 6.78125 1.625 C 6.570312 1.625 6.363281 1.625 6.15625 1.625 C 5.957031 1.625 5.757812 1.617188 5.5625 1.609375 C 4.101562 1.535156 2.921875 1.054688 2.015625 0.171875 C 1.117188 -0.710938 0.671875 -1.921875 0.671875 -3.453125 C 0.671875 -4.785156 1.046875 -6.289062 1.796875 -7.96875 C 2.753906 -10.09375 4.5625 -12.101562 7.21875 -14 C 8.75 -15.09375 10.378906 -15.960938 12.109375 -16.609375 C 13.847656 -17.265625 15.601562 -17.59375 17.375 -17.59375 C 18.40625 -17.59375 19.347656 -17.453125 20.203125 -17.171875 C 21.066406 -16.898438 21.75 -16.488281 22.25 -15.9375 C 22.757812 -15.382812 23.015625 -14.679688 23.015625 -13.828125 C 23.015625 -13.535156 22.976562 -13.226562 22.90625 -12.90625 C 22.832031 -12.582031 22.710938 -12.265625 22.546875 -11.953125 L 22.25 -11.375 C 22.394531 -10.875 22.46875 -10.363281 22.46875 -9.84375 C 22.46875 -7.539062 21.285156 -5.335938 18.921875 -3.234375 C 15.304688 0.00390625 11.257812 1.625 6.78125 1.625 Z M 6.609375 1.078125 C 10.242188 1.078125 13.703125 -0.390625 16.984375 -3.328125 C 19.347656 -5.421875 20.625 -7.421875 20.8125 -9.328125 C 19.851562 -8.273438 18.191406 -7.019531 15.828125 -5.5625 L 15.609375 -5.5 C 15.460938 -5.5 15.703125 -5.757812 16.328125 -6.28125 L 17.875 -7.546875 C 18.539062 -8.109375 19.113281 -8.628906 19.59375 -9.109375 C 20.070312 -9.585938 20.46875 -10.019531 20.78125 -10.40625 C 20.65625 -11.4375 20.15625 -12.320312 19.28125 -13.0625 C 18.550781 -13.707031 17.664062 -14.1875 16.625 -14.5 C 16.113281 -14.625 15.265625 -14.707031 14.078125 -14.75 C 13.109375 -14.78125 12.625 -14.828125 12.625 -14.890625 C 12.625 -14.910156 12.640625 -14.9375 12.671875 -14.96875 C 13.535156 -15.25 14.367188 -15.390625 15.171875 -15.390625 C 15.535156 -15.390625 15.9375 -15.359375 16.375 -15.296875 C 16.820312 -15.242188 17.304688 -15.15625 17.828125 -15.03125 C 19.753906 -14.5625 21.109375 -13.617188 21.890625 -12.203125 C 22.078125 -12.648438 22.171875 -13.101562 22.171875 -13.5625 C 22.171875 -14.3125 21.953125 -14.945312 21.515625 -15.46875 C 21.078125 -15.988281 20.492188 -16.375 19.765625 -16.625 C 19.035156 -16.882812 18.226562 -17.015625 17.34375 -17.015625 C 14.5625 -17.015625 11.890625 -16.117188 9.328125 -14.328125 C 6.941406 -12.671875 5.0625 -10.535156 3.6875 -7.921875 C 2.664062 -6.015625 2.15625 -4.304688 2.15625 -2.796875 C 2.15625 -0.359375 3.382812 0.921875 5.84375 1.046875 C 5.96875 1.066406 6.09375 1.078125 6.21875 1.078125 C 6.351562 1.078125 6.484375 1.078125 6.609375 1.078125 Z M 6.609375 1.078125 "/></g></g></g><g fill="#000000" fill-opacity="1"><g transform="translate(77.610835, 47.151706)"><g><path d="M 3.59375 0.03125 C 3.28125 0.03125 3.007812 -0.0625 2.78125 -0.25 C 2.550781 -0.445312 2.4375 -0.675781 2.4375 -0.9375 C 2.4375 -1.476562 2.785156 -1.75 3.484375 -1.75 C 3.742188 -1.75 4.003906 -1.660156 4.265625 -1.484375 C 4.523438 -1.304688 4.65625 -1.078125 4.65625 -0.796875 C 4.65625 -0.578125 4.53125 -0.382812 4.28125 -0.21875 C 4.039062 -0.0507812 3.8125 0.03125 3.59375 0.03125 Z M 3.59375 0.03125 "/></g></g></g></g></g></g></g></g></g></mask><clipPath id="21b23d6b10"><path d="M 0.304688 0 L 138.953125 0 L 138.953125 74.144531 L 0.304688 74.144531 Z M 0.304688 0 " clip-rule="nonzero"/></clipPath><clipPath id="0ee9a9bfea"><rect x="0" width="139" y="0" height="75"/></clipPath><clipPath id="7ecabc6fac"><rect x="0" width="139" y="0" height="75"/></clipPath></defs><g clip-path="url(#f3e6556b14)"><g transform="matrix(1, 0, 0, 1, 1, 0.000000000000003817)"><g clip-path="url(#487e9965a8)"><g clip-path="url(#2b33dfd9f5)"><g mask="url(#e4327dfc8f)"><g transform="matrix(1, 0, 0, 1, 0.000000000000000222, 0.000000000000003817)"><g clip-path="url(#6e22e515e4)"><g clip-path="url(#be938441ef)"><path fill="url(#1c43cf141b)" d="M 0.226562 0 L 0.226562 74.144531 L 222.535156 74.144531 L 222.535156 0 Z M 0.226562 0 " fill-rule="nonzero"/></g></g></g></g></g></g></g></g><g clip-path="url(#646dd294cb)"><g transform="matrix(1, 0, 0, 1, 14, 0.000000000000003817)"><g clip-path="url(#7ecabc6fac)"><g clip-path="url(#72bcf39932)"><g mask="url(#6c62625807)"><g transform="matrix(1, 0, 0, 1, 0, 0.000000000000003817)"><g clip-path="url(#0ee9a9bfea)"><g clip-path="url(#21b23d6b10)"><path fill="url(#200dccd75a)" d="M 0.304688 0 L 0.304688 74.144531 L 138.953125 74.144531 L 138.953125 0 Z M 0.304688 0 " fill-rule="nonzero"/></g></g></g></g></g></g></g></g></svg>