<svg xmlns="http://www.w3.org/2000/svg" xmlns:xlink="http://www.w3.org/1999/xlink" width="300" zoomAndPan="magnify" viewBox="0 0 224.87999 83.04" height="100" preserveAspectRatio="xMidYMid meet" version="1.0"><defs><filter x="0%" y="0%" width="100%" height="100%" id="db9823e972"><feColorMatrix values="0 0 0 0 1 0 0 0 0 1 0 0 0 0 1 0 0 0 1 0" color-interpolation-filters="sRGB"/></filter><g/><clipPath id="420d1aaa6e"><path d="M 1.226562 0 L 223.535156 0 L 223.535156 74.144531 L 1.226562 74.144531 Z M 1.226562 0 " clip-rule="nonzero"/></clipPath><clipPath id="c17ab093ab"><path d="M 0.226562 0 L 222.535156 0 L 222.535156 74.144531 L 0.226562 74.144531 Z M 0.226562 0 " clip-rule="nonzero"/></clipPath><clipPath id="ae421d61f8"><path d="M 0.226562 0 L 222.535156 0 L 222.535156 74.144531 L 0.226562 74.144531 Z M 0.226562 0 " clip-rule="nonzero"/></clipPath><linearGradient x1="-39.713706" gradientTransform="matrix(0.740997, 0, 0, 0.739813, 29.653462, 22.940106)" y1="20.5" x2="260.300752" gradientUnits="userSpaceOnUse" y2="20.5" id="abfebe9a39"><stop stop-opacity="1" stop-color="rgb(0%, 0%, 0%)" offset="0"/><stop stop-opacity="1" stop-color="rgb(0%, 0%, 0%)" offset="0.125"/><stop stop-opacity="1" stop-color="rgb(0.012207%, 0.012207%, 0.012207%)" offset="0.132813"/><stop stop-opacity="1" stop-color="rgb(0.265503%, 0.265503%, 0.265503%)" offset="0.136719"/><stop stop-opacity="1" stop-color="rgb(0.506592%, 0.506592%, 0.506592%)" offset="0.140625"/><stop stop-opacity="1" stop-color="rgb(0.746155%, 0.746155%, 0.746155%)" offset="0.144531"/><stop stop-opacity="1" stop-color="rgb(0.987244%, 0.987244%, 0.987244%)" offset="0.148438"/><stop stop-opacity="1" stop-color="rgb(1.226807%, 1.226807%, 1.226807%)" offset="0.152344"/><stop stop-opacity="1" stop-color="rgb(1.467896%, 1.467896%, 1.467896%)" offset="0.15625"/><stop stop-opacity="1" stop-color="rgb(1.707458%, 1.707458%, 1.707458%)" offset="0.160156"/><stop stop-opacity="1" stop-color="rgb(1.948547%, 1.948547%, 1.948547%)" offset="0.164062"/><stop stop-opacity="1" stop-color="rgb(2.18811%, 2.18811%, 2.18811%)" offset="0.167969"/><stop stop-opacity="1" stop-color="rgb(2.429199%, 2.429199%, 2.429199%)" offset="0.171875"/><stop stop-opacity="1" stop-color="rgb(2.668762%, 2.668762%, 2.668762%)" offset="0.175781"/><stop stop-opacity="1" stop-color="rgb(2.909851%, 2.909851%, 2.909851%)" offset="0.179688"/><stop stop-opacity="1" stop-color="rgb(3.149414%, 3.149414%, 3.149414%)" offset="0.183594"/><stop stop-opacity="1" stop-color="rgb(3.390503%, 3.390503%, 3.390503%)" offset="0.1875"/><stop stop-opacity="1" stop-color="rgb(3.630066%, 3.630066%, 3.630066%)" offset="0.191406"/><stop stop-opacity="1" stop-color="rgb(3.871155%, 3.871155%, 3.871155%)" offset="0.195312"/><stop stop-opacity="1" stop-color="rgb(4.112244%, 4.112244%, 4.112244%)" offset="0.199219"/><stop stop-opacity="1" stop-color="rgb(4.353333%, 4.353333%, 4.353333%)" offset="0.203125"/><stop stop-opacity="1" stop-color="rgb(4.592896%, 4.592896%, 4.592896%)" offset="0.207031"/><stop stop-opacity="1" stop-color="rgb(4.833984%, 4.833984%, 4.833984%)" offset="0.210938"/><stop stop-opacity="1" stop-color="rgb(5.073547%, 5.073547%, 5.073547%)" offset="0.214844"/><stop stop-opacity="1" stop-color="rgb(5.314636%, 5.314636%, 5.314636%)" offset="0.21875"/><stop stop-opacity="1" stop-color="rgb(5.554199%, 5.554199%, 5.554199%)" offset="0.222656"/><stop stop-opacity="1" stop-color="rgb(5.795288%, 5.795288%, 5.795288%)" offset="0.226563"/><stop stop-opacity="1" stop-color="rgb(6.034851%, 6.034851%, 6.034851%)" offset="0.230469"/><stop stop-opacity="1" stop-color="rgb(6.27594%, 6.27594%, 6.27594%)" offset="0.234375"/><stop stop-opacity="1" stop-color="rgb(6.515503%, 6.515503%, 6.515503%)" offset="0.238281"/><stop stop-opacity="1" stop-color="rgb(6.756592%, 6.756592%, 6.756592%)" offset="0.242188"/><stop stop-opacity="1" stop-color="rgb(6.996155%, 6.996155%, 6.996155%)" offset="0.246094"/><stop stop-opacity="1" stop-color="rgb(7.237244%, 7.237244%, 7.237244%)" offset="0.25"/><stop stop-opacity="1" stop-color="rgb(7.476807%, 7.476807%, 7.476807%)" offset="0.253906"/><stop stop-opacity="1" stop-color="rgb(7.717896%, 7.717896%, 7.717896%)" offset="0.257813"/><stop stop-opacity="1" stop-color="rgb(7.957458%, 7.957458%, 7.957458%)" offset="0.261719"/><stop stop-opacity="1" stop-color="rgb(8.198547%, 8.198547%, 8.198547%)" offset="0.265625"/><stop stop-opacity="1" stop-color="rgb(8.43811%, 8.43811%, 8.43811%)" offset="0.269531"/><stop stop-opacity="1" stop-color="rgb(8.679199%, 8.679199%, 8.679199%)" offset="0.273438"/><stop stop-opacity="1" stop-color="rgb(8.918762%, 8.918762%, 8.918762%)" offset="0.277344"/><stop stop-opacity="1" stop-color="rgb(9.159851%, 9.159851%, 9.159851%)" offset="0.28125"/><stop stop-opacity="1" stop-color="rgb(9.399414%, 9.399414%, 9.399414%)" offset="0.285156"/><stop stop-opacity="1" stop-color="rgb(9.640503%, 9.640503%, 9.640503%)" offset="0.289062"/><stop stop-opacity="1" stop-color="rgb(9.880066%, 9.880066%, 9.880066%)" offset="0.292969"/><stop stop-opacity="1" stop-color="rgb(10.121155%, 10.121155%, 10.121155%)" offset="0.296875"/><stop stop-opacity="1" stop-color="rgb(10.360718%, 10.360718%, 10.360718%)" offset="0.300781"/><stop stop-opacity="1" stop-color="rgb(10.601807%, 10.601807%, 10.601807%)" offset="0.304688"/><stop stop-opacity="1" stop-color="rgb(10.84137%, 10.84137%, 10.84137%)" offset="0.308594"/><stop stop-opacity="1" stop-color="rgb(11.082458%, 11.082458%, 11.082458%)" offset="0.3125"/><stop stop-opacity="1" stop-color="rgb(11.322021%, 11.322021%, 11.322021%)" offset="0.316406"/><stop stop-opacity="1" stop-color="rgb(11.56311%, 11.56311%, 11.56311%)" offset="0.320313"/><stop stop-opacity="1" stop-color="rgb(11.802673%, 11.802673%, 11.802673%)" offset="0.324219"/><stop stop-opacity="1" stop-color="rgb(12.043762%, 12.043762%, 12.043762%)" offset="0.328125"/><stop stop-opacity="1" stop-color="rgb(12.283325%, 12.283325%, 12.283325%)" offset="0.332031"/><stop stop-opacity="1" stop-color="rgb(12.524414%, 12.524414%, 12.524414%)" offset="0.335938"/><stop stop-opacity="1" stop-color="rgb(12.763977%, 12.763977%, 12.763977%)" offset="0.339844"/><stop stop-opacity="1" stop-color="rgb(13.005066%, 13.005066%, 13.005066%)" offset="0.34375"/><stop stop-opacity="1" stop-color="rgb(13.244629%, 13.244629%, 13.244629%)" offset="0.347656"/><stop stop-opacity="1" stop-color="rgb(13.485718%, 13.485718%, 13.485718%)" offset="0.351563"/><stop stop-opacity="1" stop-color="rgb(13.725281%, 13.725281%, 13.725281%)" offset="0.355469"/><stop stop-opacity="1" stop-color="rgb(13.96637%, 13.96637%, 13.96637%)" offset="0.359375"/><stop stop-opacity="1" stop-color="rgb(14.205933%, 14.205933%, 14.205933%)" offset="0.363281"/><stop stop-opacity="1" stop-color="rgb(14.447021%, 14.447021%, 14.447021%)" offset="0.367188"/><stop stop-opacity="1" stop-color="rgb(14.686584%, 14.686584%, 14.686584%)" offset="0.371094"/><stop stop-opacity="1" stop-color="rgb(14.927673%, 14.927673%, 14.927673%)" offset="0.375"/><stop stop-opacity="1" stop-color="rgb(15.167236%, 15.167236%, 15.167236%)" offset="0.378906"/><stop stop-opacity="1" stop-color="rgb(15.408325%, 15.408325%, 15.408325%)" offset="0.382812"/><stop stop-opacity="1" stop-color="rgb(15.647888%, 15.647888%, 15.647888%)" offset="0.386719"/><stop stop-opacity="1" stop-color="rgb(15.888977%, 15.888977%, 15.888977%)" offset="0.390625"/><stop stop-opacity="1" stop-color="rgb(16.12854%, 16.12854%, 16.12854%)" offset="0.394531"/><stop stop-opacity="1" stop-color="rgb(16.369629%, 16.369629%, 16.369629%)" offset="0.398438"/><stop stop-opacity="1" stop-color="rgb(16.609192%, 16.609192%, 16.609192%)" offset="0.402344"/><stop stop-opacity="1" stop-color="rgb(16.850281%, 16.850281%, 16.850281%)" offset="0.40625"/><stop stop-opacity="1" stop-color="rgb(17.089844%, 17.089844%, 17.089844%)" offset="0.410156"/><stop stop-opacity="1" stop-color="rgb(17.330933%, 17.330933%, 17.330933%)" offset="0.414062"/><stop stop-opacity="1" stop-color="rgb(17.570496%, 17.570496%, 17.570496%)" offset="0.417969"/><stop stop-opacity="1" stop-color="rgb(17.811584%, 17.811584%, 17.811584%)" offset="0.421875"/><stop stop-opacity="1" stop-color="rgb(18.051147%, 18.051147%, 18.051147%)" offset="0.425781"/><stop stop-opacity="1" stop-color="rgb(18.292236%, 18.292236%, 18.292236%)" offset="0.429688"/><stop stop-opacity="1" stop-color="rgb(18.531799%, 18.531799%, 18.531799%)" offset="0.433594"/><stop stop-opacity="1" stop-color="rgb(18.772888%, 18.772888%, 18.772888%)" offset="0.4375"/><stop stop-opacity="1" stop-color="rgb(19.012451%, 19.012451%, 19.012451%)" offset="0.441406"/><stop stop-opacity="1" stop-color="rgb(19.25354%, 19.25354%, 19.25354%)" offset="0.445313"/><stop stop-opacity="1" stop-color="rgb(19.493103%, 19.493103%, 19.493103%)" offset="0.449219"/><stop stop-opacity="1" stop-color="rgb(19.734192%, 19.734192%, 19.734192%)" offset="0.453125"/><stop stop-opacity="1" stop-color="rgb(19.973755%, 19.973755%, 19.973755%)" offset="0.457031"/><stop stop-opacity="1" stop-color="rgb(20.214844%, 20.214844%, 20.214844%)" offset="0.460938"/><stop stop-opacity="1" stop-color="rgb(20.455933%, 20.455933%, 20.455933%)" offset="0.464844"/><stop stop-opacity="1" stop-color="rgb(20.697021%, 20.697021%, 20.697021%)" offset="0.46875"/><stop stop-opacity="1" stop-color="rgb(20.936584%, 20.936584%, 20.936584%)" offset="0.472656"/><stop stop-opacity="1" stop-color="rgb(21.177673%, 21.177673%, 21.177673%)" offset="0.476562"/><stop stop-opacity="1" stop-color="rgb(21.417236%, 21.417236%, 21.417236%)" offset="0.480469"/><stop stop-opacity="1" stop-color="rgb(21.658325%, 21.658325%, 21.658325%)" offset="0.484375"/><stop stop-opacity="1" stop-color="rgb(21.897888%, 21.897888%, 21.897888%)" offset="0.488281"/><stop stop-opacity="1" stop-color="rgb(22.138977%, 22.138977%, 22.138977%)" offset="0.492188"/><stop stop-opacity="1" stop-color="rgb(22.37854%, 22.37854%, 22.37854%)" offset="0.496094"/><stop stop-opacity="1" stop-color="rgb(22.619629%, 22.619629%, 22.619629%)" offset="0.5"/><stop stop-opacity="1" stop-color="rgb(22.859192%, 22.859192%, 22.859192%)" offset="0.503906"/><stop stop-opacity="1" stop-color="rgb(23.100281%, 23.100281%, 23.100281%)" offset="0.507812"/><stop stop-opacity="1" stop-color="rgb(23.339844%, 23.339844%, 23.339844%)" offset="0.511719"/><stop stop-opacity="1" stop-color="rgb(23.580933%, 23.580933%, 23.580933%)" offset="0.515625"/><stop stop-opacity="1" stop-color="rgb(23.820496%, 23.820496%, 23.820496%)" offset="0.519531"/><stop stop-opacity="1" stop-color="rgb(24.061584%, 24.061584%, 24.061584%)" offset="0.523438"/><stop stop-opacity="1" stop-color="rgb(24.301147%, 24.301147%, 24.301147%)" offset="0.527344"/><stop stop-opacity="1" stop-color="rgb(24.542236%, 24.542236%, 24.542236%)" offset="0.53125"/><stop stop-opacity="1" stop-color="rgb(24.781799%, 24.781799%, 24.781799%)" offset="0.535156"/><stop stop-opacity="1" stop-color="rgb(25.022888%, 25.022888%, 25.022888%)" offset="0.539062"/><stop stop-opacity="1" stop-color="rgb(25.262451%, 25.262451%, 25.262451%)" offset="0.542969"/><stop stop-opacity="1" stop-color="rgb(25.50354%, 25.50354%, 25.50354%)" offset="0.546875"/><stop stop-opacity="1" stop-color="rgb(25.743103%, 25.743103%, 25.743103%)" offset="0.550781"/><stop stop-opacity="1" stop-color="rgb(25.984192%, 25.984192%, 25.984192%)" offset="0.554688"/><stop stop-opacity="1" stop-color="rgb(26.223755%, 26.223755%, 26.223755%)" offset="0.558594"/><stop stop-opacity="1" stop-color="rgb(26.464844%, 26.464844%, 26.464844%)" offset="0.5625"/><stop stop-opacity="1" stop-color="rgb(26.704407%, 26.704407%, 26.704407%)" offset="0.566406"/><stop stop-opacity="1" stop-color="rgb(26.945496%, 26.945496%, 26.945496%)" offset="0.570312"/><stop stop-opacity="1" stop-color="rgb(27.185059%, 27.185059%, 27.185059%)" offset="0.574219"/><stop stop-opacity="1" stop-color="rgb(27.426147%, 27.426147%, 27.426147%)" offset="0.578125"/><stop stop-opacity="1" stop-color="rgb(27.66571%, 27.66571%, 27.66571%)" offset="0.582031"/><stop stop-opacity="1" stop-color="rgb(27.906799%, 27.906799%, 27.906799%)" offset="0.585938"/><stop stop-opacity="1" stop-color="rgb(28.146362%, 28.146362%, 28.146362%)" offset="0.589844"/><stop stop-opacity="1" stop-color="rgb(28.387451%, 28.387451%, 28.387451%)" offset="0.59375"/><stop stop-opacity="1" stop-color="rgb(28.627014%, 28.627014%, 28.627014%)" offset="0.597656"/><stop stop-opacity="1" stop-color="rgb(28.868103%, 28.868103%, 28.868103%)" offset="0.601562"/><stop stop-opacity="1" stop-color="rgb(29.107666%, 29.107666%, 29.107666%)" offset="0.605469"/><stop stop-opacity="1" stop-color="rgb(29.348755%, 29.348755%, 29.348755%)" offset="0.609375"/><stop stop-opacity="1" stop-color="rgb(29.588318%, 29.588318%, 29.588318%)" offset="0.613281"/><stop stop-opacity="1" stop-color="rgb(29.829407%, 29.829407%, 29.829407%)" offset="0.617188"/><stop stop-opacity="1" stop-color="rgb(30.06897%, 30.06897%, 30.06897%)" offset="0.621094"/><stop stop-opacity="1" stop-color="rgb(30.310059%, 30.310059%, 30.310059%)" offset="0.625"/><stop stop-opacity="1" stop-color="rgb(30.549622%, 30.549622%, 30.549622%)" offset="0.628906"/><stop stop-opacity="1" stop-color="rgb(30.79071%, 30.79071%, 30.79071%)" offset="0.632812"/><stop stop-opacity="1" stop-color="rgb(31.030273%, 31.030273%, 31.030273%)" offset="0.636719"/><stop stop-opacity="1" stop-color="rgb(31.271362%, 31.271362%, 31.271362%)" offset="0.640625"/><stop stop-opacity="1" stop-color="rgb(31.510925%, 31.510925%, 31.510925%)" offset="0.644531"/><stop stop-opacity="1" stop-color="rgb(31.752014%, 31.752014%, 31.752014%)" offset="0.648438"/><stop stop-opacity="1" stop-color="rgb(31.991577%, 31.991577%, 31.991577%)" offset="0.652344"/><stop stop-opacity="1" stop-color="rgb(32.232666%, 32.232666%, 32.232666%)" offset="0.65625"/><stop stop-opacity="1" stop-color="rgb(32.472229%, 32.472229%, 32.472229%)" offset="0.660156"/><stop stop-opacity="1" stop-color="rgb(32.713318%, 32.713318%, 32.713318%)" offset="0.664062"/><stop stop-opacity="1" stop-color="rgb(32.952881%, 32.952881%, 32.952881%)" offset="0.667969"/><stop stop-opacity="1" stop-color="rgb(33.19397%, 33.19397%, 33.19397%)" offset="0.671875"/><stop stop-opacity="1" stop-color="rgb(33.433533%, 33.433533%, 33.433533%)" offset="0.675781"/><stop stop-opacity="1" stop-color="rgb(33.674622%, 33.674622%, 33.674622%)" offset="0.679688"/><stop stop-opacity="1" stop-color="rgb(33.914185%, 33.914185%, 33.914185%)" offset="0.683594"/><stop stop-opacity="1" stop-color="rgb(34.155273%, 34.155273%, 34.155273%)" offset="0.6875"/><stop stop-opacity="1" stop-color="rgb(34.394836%, 34.394836%, 34.394836%)" offset="0.691406"/><stop stop-opacity="1" stop-color="rgb(34.635925%, 34.635925%, 34.635925%)" offset="0.695312"/><stop stop-opacity="1" stop-color="rgb(34.875488%, 34.875488%, 34.875488%)" offset="0.699219"/><stop stop-opacity="1" stop-color="rgb(35.116577%, 35.116577%, 35.116577%)" offset="0.703125"/><stop stop-opacity="1" stop-color="rgb(35.35614%, 35.35614%, 35.35614%)" offset="0.707031"/><stop stop-opacity="1" stop-color="rgb(35.597229%, 35.597229%, 35.597229%)" offset="0.710938"/><stop stop-opacity="1" stop-color="rgb(35.836792%, 35.836792%, 35.836792%)" offset="0.714844"/><stop stop-opacity="1" stop-color="rgb(36.077881%, 36.077881%, 36.077881%)" offset="0.71875"/><stop stop-opacity="1" stop-color="rgb(36.317444%, 36.317444%, 36.317444%)" offset="0.722656"/><stop stop-opacity="1" stop-color="rgb(36.558533%, 36.558533%, 36.558533%)" offset="0.726563"/><stop stop-opacity="1" stop-color="rgb(36.799622%, 36.799622%, 36.799622%)" offset="0.730469"/><stop stop-opacity="1" stop-color="rgb(37.04071%, 37.04071%, 37.04071%)" offset="0.734375"/><stop stop-opacity="1" stop-color="rgb(37.280273%, 37.280273%, 37.280273%)" offset="0.738281"/><stop stop-opacity="1" stop-color="rgb(37.521362%, 37.521362%, 37.521362%)" offset="0.742188"/><stop stop-opacity="1" stop-color="rgb(37.760925%, 37.760925%, 37.760925%)" offset="0.746094"/><stop stop-opacity="1" stop-color="rgb(38.002014%, 38.002014%, 38.002014%)" offset="0.75"/><stop stop-opacity="1" stop-color="rgb(38.241577%, 38.241577%, 38.241577%)" offset="0.753906"/><stop stop-opacity="1" stop-color="rgb(38.482666%, 38.482666%, 38.482666%)" offset="0.757813"/><stop stop-opacity="1" stop-color="rgb(38.722229%, 38.722229%, 38.722229%)" offset="0.761719"/><stop stop-opacity="1" stop-color="rgb(38.963318%, 38.963318%, 38.963318%)" offset="0.765625"/><stop stop-opacity="1" stop-color="rgb(39.202881%, 39.202881%, 39.202881%)" offset="0.769531"/><stop stop-opacity="1" stop-color="rgb(39.44397%, 39.44397%, 39.44397%)" offset="0.773438"/><stop stop-opacity="1" stop-color="rgb(39.683533%, 39.683533%, 39.683533%)" offset="0.777344"/><stop stop-opacity="1" stop-color="rgb(39.924622%, 39.924622%, 39.924622%)" offset="0.78125"/><stop stop-opacity="1" stop-color="rgb(40.164185%, 40.164185%, 40.164185%)" offset="0.785156"/><stop stop-opacity="1" stop-color="rgb(40.405273%, 40.405273%, 40.405273%)" offset="0.789063"/><stop stop-opacity="1" stop-color="rgb(40.644836%, 40.644836%, 40.644836%)" offset="0.792969"/><stop stop-opacity="1" stop-color="rgb(40.885925%, 40.885925%, 40.885925%)" offset="0.796875"/><stop stop-opacity="1" stop-color="rgb(41.125488%, 41.125488%, 41.125488%)" offset="0.800781"/><stop stop-opacity="1" stop-color="rgb(41.366577%, 41.366577%, 41.366577%)" offset="0.804688"/><stop stop-opacity="1" stop-color="rgb(41.60614%, 41.60614%, 41.60614%)" offset="0.808594"/><stop stop-opacity="1" stop-color="rgb(41.847229%, 41.847229%, 41.847229%)" offset="0.8125"/><stop stop-opacity="1" stop-color="rgb(42.086792%, 42.086792%, 42.086792%)" offset="0.816406"/><stop stop-opacity="1" stop-color="rgb(42.327881%, 42.327881%, 42.327881%)" offset="0.820313"/><stop stop-opacity="1" stop-color="rgb(42.567444%, 42.567444%, 42.567444%)" offset="0.824219"/><stop stop-opacity="1" stop-color="rgb(42.808533%, 42.808533%, 42.808533%)" offset="0.828125"/><stop stop-opacity="1" stop-color="rgb(43.048096%, 43.048096%, 43.048096%)" offset="0.832031"/><stop stop-opacity="1" stop-color="rgb(43.289185%, 43.289185%, 43.289185%)" offset="0.835938"/><stop stop-opacity="1" stop-color="rgb(43.528748%, 43.528748%, 43.528748%)" offset="0.839844"/><stop stop-opacity="1" stop-color="rgb(43.769836%, 43.769836%, 43.769836%)" offset="0.84375"/><stop stop-opacity="1" stop-color="rgb(44.009399%, 44.009399%, 44.009399%)" offset="0.847656"/><stop stop-opacity="1" stop-color="rgb(44.250488%, 44.250488%, 44.250488%)" offset="0.851563"/><stop stop-opacity="1" stop-color="rgb(44.490051%, 44.490051%, 44.490051%)" offset="0.855469"/><stop stop-opacity="1" stop-color="rgb(44.73114%, 44.73114%, 44.73114%)" offset="0.859375"/><stop stop-opacity="1" stop-color="rgb(44.914246%, 44.914246%, 44.914246%)" offset="0.875"/><stop stop-opacity="1" stop-color="rgb(45.098877%, 45.098877%, 45.098877%)" offset="1"/></linearGradient><clipPath id="c8b62c8f53"><rect x="0" width="223" y="0" height="75"/></clipPath><clipPath id="f330cec73a"><path d="M 0.226562 0 L 222.535156 0 L 222.535156 74.144531 L 0.226562 74.144531 Z M 0.226562 0 " clip-rule="nonzero"/></clipPath><clipPath id="4322739ee1"><rect x="0" width="223" y="0" height="75"/></clipPath><clipPath id="da7d46b29a"><rect x="0" width="223" y="0" height="75"/></clipPath><mask id="2854dee388"><g filter="url(#db9823e972)"><g transform="matrix(1, 0, 0, 1, 0.000000000000000222, 0.000000000000003817)"><g clip-path="url(#da7d46b29a)"><g clip-path="url(#f330cec73a)"><g transform="matrix(1, 0, 0, 1, 0.000000000000000222, 0.000000000000003817)"><g clip-path="url(#4322739ee1)"><g fill="#000000" fill-opacity="1"><g transform="translate(29.924558, 45.520547)"><g><path d="M 7.375 0.21875 C 6.15625 0.21875 5.039062 0.0195312 4.03125 -0.375 C 3.019531 -0.78125 2.0625 -1.394531 1.15625 -2.21875 L 2.21875 -3.484375 C 3.019531 -2.753906 3.820312 -2.210938 4.625 -1.859375 C 5.4375 -1.503906 6.375 -1.328125 7.4375 -1.328125 C 8.46875 -1.328125 9.289062 -1.566406 9.90625 -2.046875 C 10.519531 -2.535156 10.828125 -3.160156 10.828125 -3.921875 L 10.828125 -3.953125 C 10.828125 -4.304688 10.769531 -4.625 10.65625 -4.90625 C 10.539062 -5.1875 10.335938 -5.441406 10.046875 -5.671875 C 9.753906 -5.910156 9.347656 -6.125 8.828125 -6.3125 C 8.316406 -6.5 7.664062 -6.675781 6.875 -6.84375 C 6 -7.039062 5.238281 -7.257812 4.59375 -7.5 C 3.945312 -7.75 3.414062 -8.046875 3 -8.390625 C 2.582031 -8.742188 2.269531 -9.148438 2.0625 -9.609375 C 1.863281 -10.078125 1.765625 -10.625 1.765625 -11.25 L 1.765625 -11.28125 C 1.765625 -11.882812 1.882812 -12.4375 2.125 -12.9375 C 2.375 -13.445312 2.722656 -13.882812 3.171875 -14.25 C 3.617188 -14.625 4.144531 -14.914062 4.75 -15.125 C 5.363281 -15.332031 6.035156 -15.4375 6.765625 -15.4375 C 7.878906 -15.4375 8.851562 -15.28125 9.6875 -14.96875 C 10.519531 -14.65625 11.328125 -14.191406 12.109375 -13.578125 L 11.109375 -12.25 C 10.398438 -12.820312 9.6875 -13.238281 8.96875 -13.5 C 8.25 -13.757812 7.5 -13.890625 6.71875 -13.890625 C 5.71875 -13.890625 4.925781 -13.65625 4.34375 -13.1875 C 3.769531 -12.71875 3.484375 -12.132812 3.484375 -11.4375 L 3.484375 -11.390625 C 3.484375 -11.035156 3.539062 -10.710938 3.65625 -10.421875 C 3.769531 -10.140625 3.976562 -9.878906 4.28125 -9.640625 C 4.582031 -9.398438 5 -9.179688 5.53125 -8.984375 C 6.070312 -8.796875 6.765625 -8.613281 7.609375 -8.4375 C 9.304688 -8.0625 10.554688 -7.539062 11.359375 -6.875 C 12.171875 -6.207031 12.578125 -5.289062 12.578125 -4.125 L 12.578125 -4.09375 C 12.578125 -3.4375 12.441406 -2.84375 12.171875 -2.3125 C 11.910156 -1.78125 11.550781 -1.328125 11.09375 -0.953125 C 10.644531 -0.578125 10.097656 -0.285156 9.453125 -0.078125 C 8.816406 0.117188 8.125 0.21875 7.375 0.21875 Z M 7.375 0.21875 "/></g></g></g><g fill="#000000" fill-opacity="1"><g transform="translate(43.841164, 45.520547)"><g><path d="M 1.90625 -15.546875 L 3.828125 -15.546875 L 3.828125 -13.703125 L 1.90625 -13.703125 Z M 2.015625 -11.25 L 3.703125 -11.25 L 3.703125 0 L 2.015625 0 Z M 2.015625 -11.25 "/></g></g></g><g fill="#000000" fill-opacity="1"><g transform="translate(49.560015, 45.520547)"><g><path d="M 1.875 -11.25 L 3.546875 -11.25 L 3.546875 -8.3125 C 3.742188 -8.769531 3.992188 -9.191406 4.296875 -9.578125 C 4.609375 -9.972656 4.957031 -10.3125 5.34375 -10.59375 C 5.738281 -10.882812 6.164062 -11.101562 6.625 -11.25 C 7.09375 -11.394531 7.597656 -11.457031 8.140625 -11.4375 L 8.140625 -9.640625 L 8 -9.640625 C 7.394531 -9.640625 6.816406 -9.53125 6.265625 -9.3125 C 5.722656 -9.09375 5.25 -8.765625 4.84375 -8.328125 C 4.4375 -7.890625 4.117188 -7.347656 3.890625 -6.703125 C 3.660156 -6.054688 3.546875 -5.316406 3.546875 -4.484375 L 3.546875 0 L 1.875 0 Z M 1.875 -11.25 "/></g></g></g><g fill="#000000" fill-opacity="1"><g transform="translate(58.376878, 45.520547)"><g/></g></g><g fill="#000000" fill-opacity="1"><g transform="translate(64.900286, 45.520547)"><g/></g></g><g fill="#000000" fill-opacity="1"><g transform="translate(71.423695, 45.520547)"><g/></g></g><g fill="#000000" fill-opacity="1"><g transform="translate(77.947103, 45.520547)"><g/></g></g><g fill="#000000" fill-opacity="1"><g transform="translate(84.470511, 45.520547)"><g/></g></g><g fill="#000000" fill-opacity="1"><g transform="translate(90.993919, 45.520547)"><g/></g></g><g fill="#000000" fill-opacity="1"><g transform="translate(97.517327, 45.520547)"><g/></g></g><g fill="#000000" fill-opacity="1"><g transform="translate(104.044243, 45.520547)"><g><path d="M 9.21875 0.265625 C 8.0625 0.265625 7.003906 0.0546875 6.046875 -0.359375 C 5.097656 -0.785156 4.285156 -1.359375 3.609375 -2.078125 C 2.929688 -2.796875 2.40625 -3.628906 2.03125 -4.578125 C 1.664062 -5.523438 1.484375 -6.519531 1.484375 -7.5625 L 1.484375 -7.609375 C 1.484375 -8.648438 1.671875 -9.648438 2.046875 -10.609375 C 2.421875 -11.566406 2.945312 -12.40625 3.625 -13.125 C 4.3125 -13.84375 5.132812 -14.414062 6.09375 -14.84375 C 7.050781 -15.269531 8.109375 -15.484375 9.265625 -15.484375 C 10.421875 -15.484375 11.472656 -15.269531 12.421875 -14.84375 C 13.378906 -14.425781 14.195312 -13.859375 14.875 -13.140625 C 15.5625 -12.429688 16.085938 -11.597656 16.453125 -10.640625 C 16.828125 -9.691406 17.015625 -8.695312 17.015625 -7.65625 L 17.015625 -7.609375 C 17.015625 -6.566406 16.820312 -5.566406 16.4375 -4.609375 C 16.0625 -3.648438 15.53125 -2.8125 14.84375 -2.09375 C 14.164062 -1.375 13.347656 -0.800781 12.390625 -0.375 C 11.441406 0.0507812 10.382812 0.265625 9.21875 0.265625 Z M 9.265625 -1.328125 C 10.140625 -1.328125 10.941406 -1.488281 11.671875 -1.8125 C 12.398438 -2.144531 13.023438 -2.59375 13.546875 -3.15625 C 14.066406 -3.71875 14.472656 -4.375 14.765625 -5.125 C 15.066406 -5.882812 15.21875 -6.695312 15.21875 -7.5625 L 15.21875 -7.609375 C 15.21875 -8.484375 15.066406 -9.300781 14.765625 -10.0625 C 14.472656 -10.820312 14.054688 -11.484375 13.515625 -12.046875 C 12.984375 -12.609375 12.351562 -13.054688 11.625 -13.390625 C 10.894531 -13.722656 10.09375 -13.890625 9.21875 -13.890625 C 8.351562 -13.890625 7.550781 -13.726562 6.8125 -13.40625 C 6.082031 -13.082031 5.457031 -12.632812 4.9375 -12.0625 C 4.414062 -11.5 4.003906 -10.84375 3.703125 -10.09375 C 3.410156 -9.34375 3.265625 -8.53125 3.265625 -7.65625 L 3.265625 -7.609375 C 3.265625 -6.742188 3.410156 -5.929688 3.703125 -5.171875 C 4.003906 -4.410156 4.421875 -3.742188 4.953125 -3.171875 C 5.492188 -2.609375 6.128906 -2.160156 6.859375 -1.828125 C 7.585938 -1.492188 8.390625 -1.328125 9.265625 -1.328125 Z M 9.265625 -1.328125 "/></g></g></g><g fill="#000000" fill-opacity="1"><g transform="translate(122.527236, 45.520547)"><g><path d="M 1.875 -15.875 L 3.546875 -15.875 L 3.546875 -4.921875 L 9.609375 -11.25 L 11.703125 -11.25 L 6.984375 -6.421875 L 11.859375 0 L 9.859375 0 L 5.828125 -5.234375 L 3.546875 -2.9375 L 3.546875 0 L 1.875 0 Z M 1.875 -15.875 "/></g></g></g><g fill="#000000" fill-opacity="1"><g transform="translate(134.356322, 45.520547)"><g><path d="M 6.78125 0.265625 C 6.019531 0.265625 5.296875 0.125 4.609375 -0.15625 C 3.929688 -0.445312 3.335938 -0.847656 2.828125 -1.359375 C 2.316406 -1.867188 1.910156 -2.484375 1.609375 -3.203125 C 1.316406 -3.921875 1.171875 -4.71875 1.171875 -5.59375 L 1.171875 -5.640625 C 1.171875 -6.441406 1.304688 -7.195312 1.578125 -7.90625 C 1.847656 -8.625 2.222656 -9.25 2.703125 -9.78125 C 3.179688 -10.3125 3.75 -10.726562 4.40625 -11.03125 C 5.0625 -11.332031 5.78125 -11.484375 6.5625 -11.484375 C 7.394531 -11.484375 8.132812 -11.328125 8.78125 -11.015625 C 9.4375 -10.703125 9.988281 -10.273438 10.4375 -9.734375 C 10.882812 -9.203125 11.222656 -8.578125 11.453125 -7.859375 C 11.691406 -7.140625 11.8125 -6.367188 11.8125 -5.546875 C 11.8125 -5.429688 11.8125 -5.335938 11.8125 -5.265625 C 11.8125 -5.191406 11.800781 -5.101562 11.78125 -5 L 2.875 -5 C 2.925781 -4.394531 3.066406 -3.851562 3.296875 -3.375 C 3.535156 -2.90625 3.832031 -2.507812 4.1875 -2.1875 C 4.539062 -1.863281 4.941406 -1.617188 5.390625 -1.453125 C 5.835938 -1.285156 6.316406 -1.203125 6.828125 -1.203125 C 7.609375 -1.203125 8.273438 -1.34375 8.828125 -1.625 C 9.390625 -1.914062 9.90625 -2.300781 10.375 -2.78125 L 11.421875 -1.84375 C 10.859375 -1.207031 10.210938 -0.695312 9.484375 -0.3125 C 8.753906 0.0703125 7.851562 0.265625 6.78125 0.265625 Z M 10.109375 -6.25 C 10.066406 -6.75 9.960938 -7.226562 9.796875 -7.6875 C 9.628906 -8.15625 9.394531 -8.5625 9.09375 -8.90625 C 8.800781 -9.257812 8.441406 -9.539062 8.015625 -9.75 C 7.585938 -9.957031 7.09375 -10.0625 6.53125 -10.0625 C 6.03125 -10.0625 5.570312 -9.960938 5.15625 -9.765625 C 4.738281 -9.578125 4.367188 -9.3125 4.046875 -8.96875 C 3.722656 -8.625 3.457031 -8.21875 3.25 -7.75 C 3.050781 -7.289062 2.925781 -6.789062 2.875 -6.25 Z M 10.109375 -6.25 "/></g></g></g><g fill="#000000" fill-opacity="1"><g transform="translate(147.229186, 45.520547)"><g><path d="M 7 0.265625 C 6.15625 0.265625 5.378906 0.109375 4.671875 -0.203125 C 3.960938 -0.515625 3.347656 -0.9375 2.828125 -1.46875 C 2.304688 -2 1.898438 -2.613281 1.609375 -3.3125 C 1.316406 -4.019531 1.171875 -4.769531 1.171875 -5.5625 L 1.171875 -5.609375 C 1.171875 -6.410156 1.316406 -7.164062 1.609375 -7.875 C 1.898438 -8.582031 2.304688 -9.203125 2.828125 -9.734375 C 3.347656 -10.273438 3.96875 -10.703125 4.6875 -11.015625 C 5.40625 -11.328125 6.191406 -11.484375 7.046875 -11.484375 C 7.890625 -11.484375 8.671875 -11.328125 9.390625 -11.015625 C 10.109375 -10.703125 10.726562 -10.28125 11.25 -9.75 C 11.769531 -9.226562 12.171875 -8.613281 12.453125 -7.90625 C 12.742188 -7.195312 12.890625 -6.445312 12.890625 -5.65625 L 12.890625 -5.609375 C 12.890625 -4.816406 12.738281 -4.0625 12.4375 -3.34375 C 12.144531 -2.632812 11.738281 -2.007812 11.21875 -1.46875 C 10.695312 -0.9375 10.070312 -0.515625 9.34375 -0.203125 C 8.625 0.109375 7.84375 0.265625 7 0.265625 Z M 7.046875 -1.234375 C 7.648438 -1.234375 8.207031 -1.347656 8.71875 -1.578125 C 9.226562 -1.816406 9.664062 -2.128906 10.03125 -2.515625 C 10.394531 -2.910156 10.675781 -3.367188 10.875 -3.890625 C 11.070312 -4.410156 11.171875 -4.96875 11.171875 -5.5625 L 11.171875 -5.609375 C 11.171875 -6.222656 11.066406 -6.789062 10.859375 -7.3125 C 10.648438 -7.84375 10.359375 -8.304688 9.984375 -8.703125 C 9.609375 -9.109375 9.164062 -9.425781 8.65625 -9.65625 C 8.144531 -9.882812 7.59375 -10 7 -10 C 6.394531 -10 5.835938 -9.882812 5.328125 -9.65625 C 4.816406 -9.425781 4.382812 -9.113281 4.03125 -8.71875 C 3.675781 -8.332031 3.394531 -7.875 3.1875 -7.34375 C 2.988281 -6.8125 2.890625 -6.25 2.890625 -5.65625 L 2.890625 -5.609375 C 2.890625 -5.003906 2.992188 -4.4375 3.203125 -3.90625 C 3.421875 -3.375 3.710938 -2.910156 4.078125 -2.515625 C 4.441406 -2.128906 4.878906 -1.816406 5.390625 -1.578125 C 5.898438 -1.347656 6.453125 -1.234375 7.046875 -1.234375 Z M 7.046875 -1.234375 "/></g></g></g><g fill="#000000" fill-opacity="1"><g transform="translate(160.732607, 45.520547)"><g><path d="M 0.90625 -11.25 L 2.703125 -11.25 L 5.65625 -2.21875 L 8.671875 -11.28125 L 10.0625 -11.28125 L 13.109375 -2.21875 L 16.078125 -11.25 L 17.8125 -11.25 L 13.859375 0.09375 L 12.390625 0.09375 L 9.375 -8.78125 L 6.328125 0.09375 L 4.84375 0.09375 Z M 0.90625 -11.25 "/></g></g></g><g fill="#000000" fill-opacity="1"><g transform="translate(178.911137, 45.520547)"><g><path d="M 7 0.265625 C 6.15625 0.265625 5.378906 0.109375 4.671875 -0.203125 C 3.960938 -0.515625 3.347656 -0.9375 2.828125 -1.46875 C 2.304688 -2 1.898438 -2.613281 1.609375 -3.3125 C 1.316406 -4.019531 1.171875 -4.769531 1.171875 -5.5625 L 1.171875 -5.609375 C 1.171875 -6.410156 1.316406 -7.164062 1.609375 -7.875 C 1.898438 -8.582031 2.304688 -9.203125 2.828125 -9.734375 C 3.347656 -10.273438 3.96875 -10.703125 4.6875 -11.015625 C 5.40625 -11.328125 6.191406 -11.484375 7.046875 -11.484375 C 7.890625 -11.484375 8.671875 -11.328125 9.390625 -11.015625 C 10.109375 -10.703125 10.726562 -10.28125 11.25 -9.75 C 11.769531 -9.226562 12.171875 -8.613281 12.453125 -7.90625 C 12.742188 -7.195312 12.890625 -6.445312 12.890625 -5.65625 L 12.890625 -5.609375 C 12.890625 -4.816406 12.738281 -4.0625 12.4375 -3.34375 C 12.144531 -2.632812 11.738281 -2.007812 11.21875 -1.46875 C 10.695312 -0.9375 10.070312 -0.515625 9.34375 -0.203125 C 8.625 0.109375 7.84375 0.265625 7 0.265625 Z M 7.046875 -1.234375 C 7.648438 -1.234375 8.207031 -1.347656 8.71875 -1.578125 C 9.226562 -1.816406 9.664062 -2.128906 10.03125 -2.515625 C 10.394531 -2.910156 10.675781 -3.367188 10.875 -3.890625 C 11.070312 -4.410156 11.171875 -4.96875 11.171875 -5.5625 L 11.171875 -5.609375 C 11.171875 -6.222656 11.066406 -6.789062 10.859375 -7.3125 C 10.648438 -7.84375 10.359375 -8.304688 9.984375 -8.703125 C 9.609375 -9.109375 9.164062 -9.425781 8.65625 -9.65625 C 8.144531 -9.882812 7.59375 -10 7 -10 C 6.394531 -10 5.835938 -9.882812 5.328125 -9.65625 C 4.816406 -9.425781 4.382812 -9.113281 4.03125 -8.71875 C 3.675781 -8.332031 3.394531 -7.875 3.1875 -7.34375 C 2.988281 -6.8125 2.890625 -6.25 2.890625 -5.65625 L 2.890625 -5.609375 C 2.890625 -5.003906 2.992188 -4.4375 3.203125 -3.90625 C 3.421875 -3.375 3.710938 -2.910156 4.078125 -2.515625 C 4.441406 -2.128906 4.878906 -1.816406 5.390625 -1.578125 C 5.898438 -1.347656 6.453125 -1.234375 7.046875 -1.234375 Z M 7.046875 -1.234375 "/></g></g></g></g></g></g></g></g></g></mask><clipPath id="334ae53784"><path d="M 0.226562 0 L 222.535156 0 L 222.535156 74.144531 L 0.226562 74.144531 Z M 0.226562 0 " clip-rule="nonzero"/></clipPath><clipPath id="132e7be08c"><rect x="0" width="223" y="0" height="75"/></clipPath><clipPath id="cac5cb9f9e"><rect x="0" width="223" y="0" height="75"/></clipPath><clipPath id="68f03f8798"><path d="M 14.304688 0 L 152.953125 0 L 152.953125 74.144531 L 14.304688 74.144531 Z M 14.304688 0 " clip-rule="nonzero"/></clipPath><clipPath id="a1318eb2ff"><path d="M 0.304688 0 L 138.953125 0 L 138.953125 74.144531 L 0.304688 74.144531 Z M 0.304688 0 " clip-rule="nonzero"/></clipPath><clipPath id="8c5ad5cf8c"><path d="M 0.304688 0 L 138.953125 0 L 138.953125 74.144531 L 0.304688 74.144531 Z M 0.304688 0 " clip-rule="nonzero"/></clipPath><linearGradient x1="-50.145513" gradientTransform="matrix(0.741356, 0, 0, 0.740179, 55.658854, 22.345356)" y1="94.49864" x2="93.4459" gradientUnits="userSpaceOnUse" y2="-49.096161" id="d2bcb39e03"><stop stop-opacity="1" stop-color="rgb(23.139954%, 13.328552%, 13.328552%)" offset="0"/><stop stop-opacity="1" stop-color="rgb(23.139954%, 13.328552%, 13.328552%)" offset="0.25"/><stop stop-opacity="1" stop-color="rgb(23.139954%, 13.328552%, 13.328552%)" offset="0.348798"/><stop stop-opacity="1" stop-color="rgb(23.139954%, 13.328552%, 13.328552%)" offset="0.375"/><stop stop-opacity="1" stop-color="rgb(23.756409%, 13.813782%, 13.417053%)" offset="0.378906"/><stop stop-opacity="1" stop-color="rgb(24.37439%, 14.300537%, 13.505554%)" offset="0.382812"/><stop stop-opacity="1" stop-color="rgb(25.247192%, 14.985657%, 13.630676%)" offset="0.386719"/><stop stop-opacity="1" stop-color="rgb(26.119995%, 15.670776%, 13.755798%)" offset="0.390625"/><stop stop-opacity="1" stop-color="rgb(26.992798%, 16.355896%, 13.88092%)" offset="0.394531"/><stop stop-opacity="1" stop-color="rgb(27.865601%, 17.042542%, 14.006042%)" offset="0.398437"/><stop stop-opacity="1" stop-color="rgb(28.736877%, 17.727661%, 14.131165%)" offset="0.402344"/><stop stop-opacity="1" stop-color="rgb(29.60968%, 18.412781%, 14.256287%)" offset="0.40625"/><stop stop-opacity="1" stop-color="rgb(30.482483%, 19.0979%, 14.381409%)" offset="0.410156"/><stop stop-opacity="1" stop-color="rgb(31.355286%, 19.784546%, 14.506531%)" offset="0.414062"/><stop stop-opacity="1" stop-color="rgb(32.228088%, 20.469666%, 14.631653%)" offset="0.417969"/><stop stop-opacity="1" stop-color="rgb(33.100891%, 21.154785%, 14.756775%)" offset="0.421875"/><stop stop-opacity="1" stop-color="rgb(33.972168%, 21.839905%, 14.881897%)" offset="0.425781"/><stop stop-opacity="1" stop-color="rgb(34.844971%, 22.52655%, 15.007019%)" offset="0.429688"/><stop stop-opacity="1" stop-color="rgb(35.717773%, 23.21167%, 15.132141%)" offset="0.433594"/><stop stop-opacity="1" stop-color="rgb(36.590576%, 23.89679%, 15.257263%)" offset="0.4375"/><stop stop-opacity="1" stop-color="rgb(37.463379%, 24.581909%, 15.380859%)" offset="0.441406"/><stop stop-opacity="1" stop-color="rgb(38.336182%, 25.268555%, 15.505981%)" offset="0.445312"/><stop stop-opacity="1" stop-color="rgb(39.533997%, 26.364136%, 15.765381%)" offset="0.449219"/><stop stop-opacity="1" stop-color="rgb(40.731812%, 27.461243%, 16.026306%)" offset="0.453125"/><stop stop-opacity="1" stop-color="rgb(42.808533%, 29.669189%, 16.648865%)" offset="0.457031"/><stop stop-opacity="1" stop-color="rgb(44.885254%, 31.877136%, 17.271423%)" offset="0.460938"/><stop stop-opacity="1" stop-color="rgb(46.961975%, 34.085083%, 17.893982%)" offset="0.464844"/><stop stop-opacity="1" stop-color="rgb(49.040222%, 36.29303%, 18.518066%)" offset="0.46875"/><stop stop-opacity="1" stop-color="rgb(51.116943%, 38.500977%, 19.140625%)" offset="0.472656"/><stop stop-opacity="1" stop-color="rgb(53.19519%, 40.708923%, 19.764709%)" offset="0.476562"/><stop stop-opacity="1" stop-color="rgb(55.271912%, 42.91687%, 20.387268%)" offset="0.480469"/><stop stop-opacity="1" stop-color="rgb(57.350159%, 45.124817%, 21.011353%)" offset="0.484375"/><stop stop-opacity="1" stop-color="rgb(59.42688%, 47.331238%, 21.633911%)" offset="0.488281"/><stop stop-opacity="1" stop-color="rgb(61.505127%, 49.539185%, 22.25647%)" offset="0.492187"/><stop stop-opacity="1" stop-color="rgb(63.581848%, 51.747131%, 22.879028%)" offset="0.496094"/><stop stop-opacity="1" stop-color="rgb(65.660095%, 53.955078%, 23.503113%)" offset="0.5"/><stop stop-opacity="1" stop-color="rgb(67.736816%, 56.163025%, 24.125671%)" offset="0.503906"/><stop stop-opacity="1" stop-color="rgb(69.813538%, 58.370972%, 24.749756%)" offset="0.507812"/><stop stop-opacity="1" stop-color="rgb(71.502686%, 60.215759%, 26.509094%)" offset="0.511719"/><stop stop-opacity="1" stop-color="rgb(73.191833%, 62.060547%, 28.268433%)" offset="0.515625"/><stop stop-opacity="1" stop-color="rgb(74.728394%, 63.763428%, 30.470276%)" offset="0.519531"/><stop stop-opacity="1" stop-color="rgb(76.266479%, 65.466309%, 32.673645%)" offset="0.523438"/><stop stop-opacity="1" stop-color="rgb(77.80304%, 67.169189%, 34.875488%)" offset="0.527344"/><stop stop-opacity="1" stop-color="rgb(79.341125%, 68.873596%, 37.077332%)" offset="0.53125"/><stop stop-opacity="1" stop-color="rgb(80.877686%, 70.576477%, 39.279175%)" offset="0.535156"/><stop stop-opacity="1" stop-color="rgb(82.415771%, 72.279358%, 41.482544%)" offset="0.539062"/><stop stop-opacity="1" stop-color="rgb(83.952332%, 73.982239%, 43.684387%)" offset="0.542969"/><stop stop-opacity="1" stop-color="rgb(85.490417%, 75.686646%, 45.88623%)" offset="0.546875"/><stop stop-opacity="1" stop-color="rgb(87.026978%, 77.389526%, 48.088074%)" offset="0.550781"/><stop stop-opacity="1" stop-color="rgb(88.565063%, 79.092407%, 50.291443%)" offset="0.554688"/><stop stop-opacity="1" stop-color="rgb(90.101624%, 80.795288%, 52.493286%)" offset="0.558594"/><stop stop-opacity="1" stop-color="rgb(91.639709%, 82.498169%, 54.695129%)" offset="0.5625"/><stop stop-opacity="1" stop-color="rgb(93.17627%, 84.20105%, 56.896973%)" offset="0.566406"/><stop stop-opacity="1" stop-color="rgb(94.714355%, 85.905457%, 59.100342%)" offset="0.570312"/><stop stop-opacity="1" stop-color="rgb(96.252441%, 87.608337%, 61.302185%)" offset="0.574219"/><stop stop-opacity="1" stop-color="rgb(97.790527%, 89.311218%, 63.504028%)" offset="0.578125"/><stop stop-opacity="1" stop-color="rgb(98.895264%, 90.534973%, 65.086365%)" offset="0.582031"/><stop stop-opacity="1" stop-color="rgb(100%, 91.758728%, 66.668701%)" offset="0.585937"/><stop stop-opacity="1" stop-color="rgb(100%, 91.758728%, 66.668701%)" offset="0.59375"/><stop stop-opacity="1" stop-color="rgb(100%, 91.758728%, 66.668701%)" offset="0.625"/><stop stop-opacity="1" stop-color="rgb(100%, 91.758728%, 66.668701%)" offset="0.651202"/><stop stop-opacity="1" stop-color="rgb(100%, 91.758728%, 66.668701%)" offset="0.75"/><stop stop-opacity="1" stop-color="rgb(100%, 91.758728%, 66.668701%)" offset="1"/></linearGradient><clipPath id="dcfc538216"><rect x="0" width="139" y="0" height="75"/></clipPath><clipPath id="a277f92140"><path d="M 0.304688 0 L 138.953125 0 L 138.953125 74.144531 L 0.304688 74.144531 Z M 0.304688 0 " clip-rule="nonzero"/></clipPath><clipPath id="16d5e8a970"><rect x="0" width="139" y="0" height="75"/></clipPath><clipPath id="c9489904ae"><rect x="0" width="139" y="0" height="75"/></clipPath><mask id="fca125d751"><g filter="url(#db9823e972)"><g transform="matrix(1, 0, 0, 1, 0, 0.000000000000003817)"><g clip-path="url(#c9489904ae)"><g clip-path="url(#a277f92140)"><g transform="matrix(1, 0, 0, 1, 0, 0.000000000000003817)"><g clip-path="url(#16d5e8a970)"><g fill="#000000" fill-opacity="1"><g transform="translate(55.912669, 47.151705)"><g><path d="M 6.78125 1.625 C 6.570312 1.625 6.363281 1.625 6.15625 1.625 C 5.957031 1.625 5.757812 1.617188 5.5625 1.609375 C 4.101562 1.535156 2.921875 1.054688 2.015625 0.171875 C 1.117188 -0.710938 0.671875 -1.921875 0.671875 -3.453125 C 0.671875 -4.785156 1.046875 -6.289062 1.796875 -7.96875 C 2.753906 -10.09375 4.5625 -12.101562 7.21875 -14 C 8.75 -15.09375 10.378906 -15.960938 12.109375 -16.609375 C 13.847656 -17.265625 15.601562 -17.59375 17.375 -17.59375 C 18.40625 -17.59375 19.347656 -17.453125 20.203125 -17.171875 C 21.066406 -16.898438 21.75 -16.488281 22.25 -15.9375 C 22.757812 -15.382812 23.015625 -14.679688 23.015625 -13.828125 C 23.015625 -13.535156 22.976562 -13.226562 22.90625 -12.90625 C 22.832031 -12.582031 22.710938 -12.265625 22.546875 -11.953125 L 22.25 -11.375 C 22.394531 -10.875 22.46875 -10.363281 22.46875 -9.84375 C 22.46875 -7.539062 21.285156 -5.335938 18.921875 -3.234375 C 15.304688 0.00390625 11.257812 1.625 6.78125 1.625 Z M 6.609375 1.078125 C 10.242188 1.078125 13.703125 -0.390625 16.984375 -3.328125 C 19.347656 -5.421875 20.625 -7.421875 20.8125 -9.328125 C 19.851562 -8.273438 18.191406 -7.019531 15.828125 -5.5625 L 15.609375 -5.5 C 15.460938 -5.5 15.703125 -5.757812 16.328125 -6.28125 L 17.875 -7.546875 C 18.539062 -8.109375 19.113281 -8.628906 19.59375 -9.109375 C 20.070312 -9.585938 20.46875 -10.019531 20.78125 -10.40625 C 20.65625 -11.4375 20.15625 -12.320312 19.28125 -13.0625 C 18.550781 -13.707031 17.664062 -14.1875 16.625 -14.5 C 16.113281 -14.625 15.265625 -14.707031 14.078125 -14.75 C 13.109375 -14.78125 12.625 -14.828125 12.625 -14.890625 C 12.625 -14.910156 12.640625 -14.9375 12.671875 -14.96875 C 13.535156 -15.25 14.367188 -15.390625 15.171875 -15.390625 C 15.535156 -15.390625 15.9375 -15.359375 16.375 -15.296875 C 16.820312 -15.242188 17.304688 -15.15625 17.828125 -15.03125 C 19.753906 -14.5625 21.109375 -13.617188 21.890625 -12.203125 C 22.078125 -12.648438 22.171875 -13.101562 22.171875 -13.5625 C 22.171875 -14.3125 21.953125 -14.945312 21.515625 -15.46875 C 21.078125 -15.988281 20.492188 -16.375 19.765625 -16.625 C 19.035156 -16.882812 18.226562 -17.015625 17.34375 -17.015625 C 14.5625 -17.015625 11.890625 -16.117188 9.328125 -14.328125 C 6.941406 -12.671875 5.0625 -10.535156 3.6875 -7.921875 C 2.664062 -6.015625 2.15625 -4.304688 2.15625 -2.796875 C 2.15625 -0.359375 3.382812 0.921875 5.84375 1.046875 C 5.96875 1.066406 6.09375 1.078125 6.21875 1.078125 C 6.351562 1.078125 6.484375 1.078125 6.609375 1.078125 Z M 6.609375 1.078125 "/></g></g></g><g fill="#000000" fill-opacity="1"><g transform="translate(77.610835, 47.151705)"><g><path d="M 3.59375 0.03125 C 3.28125 0.03125 3.007812 -0.0625 2.78125 -0.25 C 2.550781 -0.445312 2.4375 -0.675781 2.4375 -0.9375 C 2.4375 -1.476562 2.785156 -1.75 3.484375 -1.75 C 3.742188 -1.75 4.003906 -1.660156 4.265625 -1.484375 C 4.523438 -1.304688 4.65625 -1.078125 4.65625 -0.796875 C 4.65625 -0.578125 4.53125 -0.382812 4.28125 -0.21875 C 4.039062 -0.0507812 3.8125 0.03125 3.59375 0.03125 Z M 3.59375 0.03125 "/></g></g></g></g></g></g></g></g></g></mask><clipPath id="63dec2b377"><path d="M 0.304688 0 L 138.953125 0 L 138.953125 74.144531 L 0.304688 74.144531 Z M 0.304688 0 " clip-rule="nonzero"/></clipPath><clipPath id="689c92b223"><rect x="0" width="139" y="0" height="75"/></clipPath><clipPath id="c978902618"><rect x="0" width="139" y="0" height="75"/></clipPath></defs><g clip-path="url(#420d1aaa6e)"><g transform="matrix(1, 0, 0, 1, 1, 0.000000000000003817)"><g clip-path="url(#cac5cb9f9e)"><g clip-path="url(#c17ab093ab)"><g mask="url(#2854dee388)"><g transform="matrix(1, 0, 0, 1, 0.000000000000000222, 0.000000000000003817)"><g clip-path="url(#132e7be08c)"><g clip-path="url(#334ae53784)"><path fill="url(#abfebe9a39)" d="M 0.226562 0 L 0.226562 74.144531 L 222.535156 74.144531 L 222.535156 0 Z M 0.226562 0 " fill-rule="nonzero"/></g></g></g></g></g></g></g></g><g clip-path="url(#68f03f8798)"><g transform="matrix(1, 0, 0, 1, 14, 0.000000000000003817)"><g clip-path="url(#c978902618)"><g clip-path="url(#a1318eb2ff)"><g mask="url(#fca125d751)"><g transform="matrix(1, 0, 0, 1, 0, 0.000000000000003817)"><g clip-path="url(#689c92b223)"><g clip-path="url(#63dec2b377)"><path fill="url(#d2bcb39e03)" d="M 0.304688 0 L 0.304688 74.144531 L 138.953125 74.144531 L 138.953125 0 Z M 0.304688 0 " fill-rule="nonzero"/></g></g></g></g></g></g></g></g></svg>